<svg width="163" height="163" viewBox="0 0 163 163" fill="none" xmlns="http://www.w3.org/2000/svg">
<path d="M81.4999 154.714C76.8137 154.714 72.3992 152.337 69.275 148.194L59.0875 134.611C58.8838 134.339 58.0686 133.931 57.6611 133.931H54.3333C26.012 133.931 8.4895 126.257 8.4895 88.0877V54.1294C8.4895 24.1102 24.3141 8.28564 54.3333 8.28564H108.667C138.686 8.28564 154.51 24.1102 154.51 54.1294V88.0877C154.51 90.8723 152.201 93.1815 149.417 93.1815C146.632 93.1815 144.323 90.8723 144.323 88.0877V54.1294C144.323 29.8152 132.981 18.4731 108.667 18.4731H54.3333C30.0191 18.4731 18.677 29.8152 18.677 54.1294V88.0877C18.677 118.786 29.2041 123.744 54.3333 123.744H57.7291C61.1928 123.744 65.1999 125.714 67.2374 128.498L77.4249 142.081C79.802 145.206 83.1979 145.206 85.575 142.081C87.2729 139.84 90.4649 139.365 92.7061 141.063C94.9474 142.761 95.4228 145.953 93.7248 148.194C90.6007 152.337 86.1862 154.714 81.4999 154.714Z" fill="#ABB1B8"/>
<path d="M81.4999 81.296C77.6966 81.296 74.7083 78.2397 74.7083 74.5043C74.7083 70.7689 77.7645 67.7126 81.4999 67.7126C85.2353 67.7126 88.2916 70.7689 88.2916 74.5043C88.2916 78.2397 85.3033 81.296 81.4999 81.296Z" fill="#ABB1B8"/>
<path d="M108.667 81.296C104.863 81.296 101.875 78.2397 101.875 74.5043C101.875 70.7689 104.931 67.7126 108.667 67.7126C112.402 67.7126 115.458 70.7689 115.458 74.5043C115.458 78.2397 112.47 81.296 108.667 81.296Z" fill="#ABB1B8"/>
<path d="M54.3334 81.296C50.5301 81.296 47.5417 78.2397 47.5417 74.5043C47.5417 70.7689 50.598 67.7126 54.3334 67.7126C58.0688 67.7126 61.1251 70.7689 61.1251 74.5043C61.1251 78.2397 58.1367 81.296 54.3334 81.296Z" fill="#ABB1B8"/>
<path d="M123.608 150.435C108.803 150.435 96.7812 138.414 96.7812 123.608C96.7812 108.802 108.803 96.7812 123.608 96.7812C138.414 96.7812 150.435 108.802 150.435 123.608C150.435 138.414 138.414 150.435 123.608 150.435ZM123.608 106.969C114.44 106.969 106.969 114.44 106.969 123.608C106.969 132.777 114.44 140.248 123.608 140.248C132.777 140.248 140.248 132.777 140.248 123.608C140.248 114.44 132.777 106.969 123.608 106.969Z" fill="#ABB1B8"/>
<path d="M149.416 154.511C148.126 154.511 146.835 154.035 145.817 153.016L139.025 146.225C137.055 144.255 137.055 140.995 139.025 139.026C140.995 137.056 144.255 137.056 146.224 139.026L153.016 145.817C154.985 147.787 154.985 151.047 153.016 153.016C151.997 154.035 150.707 154.511 149.416 154.511Z" fill="#ABB1B8"/>
</svg>
