<svg width="1034" height="228" viewBox="0 0 1034 228" fill="none" xmlns="http://www.w3.org/2000/svg">
<g clip-path="url(#clip0_441_5676)">
<rect width="1034" height="228" fill="url(#paint0_linear_441_5676)"/>
<g style="mix-blend-mode:overlay">
<ellipse cx="0.920383" cy="0.877421" rx="0.920383" ry="0.877421" transform="matrix(0.395822 -0.918327 0.894457 0.447155 759.25 85.6607)" fill="white"/>
</g>
<ellipse cx="0.460429" cy="0.438938" rx="0.460429" ry="0.438938" transform="matrix(0.395822 -0.918327 0.894457 0.447155 777.635 78.4137)" fill="white"/>
<g style="mix-blend-mode:overlay">
<ellipse cx="0.460429" cy="0.438938" rx="0.460429" ry="0.438938" transform="matrix(0.395822 -0.918327 0.894457 0.447155 752.073 49.1968)" fill="white"/>
</g>
<ellipse cx="0.460429" cy="0.438938" rx="0.460429" ry="0.438938" transform="matrix(0.395822 -0.918327 0.894457 0.447155 829.984 52.1522)" fill="white"/>
<g style="mix-blend-mode:overlay">
<ellipse cx="0.460429" cy="0.438938" rx="0.460429" ry="0.438938" transform="matrix(0.395822 -0.918327 0.894457 0.447155 808.13 60.7847)" fill="white"/>
</g>
<g style="mix-blend-mode:overlay">
<ellipse cx="0.920383" cy="0.877421" rx="0.920383" ry="0.877421" transform="matrix(0.395822 -0.918327 0.894457 0.447155 786.381 58.1301)" fill="white"/>
</g>
<ellipse cx="0.920383" cy="0.877421" rx="0.920383" ry="0.877421" transform="matrix(0.395822 -0.918327 0.894457 0.447155 768.001 51.0002)" fill="white"/>
<g style="mix-blend-mode:overlay">
<ellipse cx="0.920383" cy="0.877421" rx="0.920383" ry="0.877421" transform="matrix(0.395822 -0.918327 0.894457 0.447155 813.314 37.6904)" fill="white"/>
</g>
<g style="mix-blend-mode:overlay">
<ellipse cx="0.460429" cy="0.438938" rx="0.460429" ry="0.438938" transform="matrix(0.395822 -0.918327 0.894457 0.447155 796.472 87.8296)" fill="white"/>
</g>
<ellipse cx="0.460429" cy="0.438938" rx="0.460429" ry="0.438938" transform="matrix(0.395822 -0.918327 0.894457 0.447155 802.078 65.9771)" fill="white"/>
<ellipse cx="0.460429" cy="0.438938" rx="0.460429" ry="0.438938" transform="matrix(0.395822 -0.918327 0.894457 0.447155 790.562 44.1421)" fill="white"/>
<g style="mix-blend-mode:overlay">
<ellipse cx="0.460429" cy="0.438938" rx="0.460429" ry="0.438938" transform="matrix(0.395822 -0.918327 0.894457 0.447155 767.769 57.0446)" fill="white"/>
</g>
<g style="mix-blend-mode:overlay">
<ellipse cx="0.877267" cy="0.944686" rx="0.877267" ry="0.944686" transform="matrix(0.999618 0.0276454 -0.023838 0.999716 812.218 90.905)" fill="white"/>
</g>
<g style="mix-blend-mode:overlay">
<ellipse cx="0.43886" cy="0.472587" rx="0.43886" ry="0.472587" transform="matrix(0.999618 0.0276454 -0.023838 0.999716 825.892 106.406)" fill="white"/>
</g>
<g style="mix-blend-mode:overlay">
<ellipse cx="0.43886" cy="0.472587" rx="0.43886" ry="0.472587" transform="matrix(0.999618 0.0276454 -0.023838 0.999716 840.823 69.0145)" fill="white"/>
</g>
<g style="mix-blend-mode:overlay">
<ellipse cx="0.43886" cy="0.472587" rx="0.43886" ry="0.472587" transform="matrix(0.999618 0.0276454 -0.023838 0.999716 875.178 100.207)" fill="white"/>
</g>
<ellipse cx="0.43886" cy="0.472587" rx="0.43886" ry="0.472587" transform="matrix(0.999618 0.0276454 -0.023838 0.999716 853.413 129.846)" fill="white"/>
<g style="mix-blend-mode:overlay">
<ellipse cx="0.877267" cy="0.944686" rx="0.877267" ry="0.944686" transform="matrix(0.999618 0.0276454 -0.023838 0.999716 846.935 106.987)" fill="white"/>
</g>
<g style="mix-blend-mode:overlay">
<ellipse cx="0.877267" cy="0.944686" rx="0.877267" ry="0.944686" transform="matrix(0.999618 0.0276454 -0.023838 0.999716 868.702 77.3466)" fill="white"/>
</g>
<ellipse cx="0.877267" cy="0.944686" rx="0.877267" ry="0.944686" transform="matrix(0.999618 0.0276454 -0.023838 0.999716 875.447 125.73)" fill="white"/>
<ellipse cx="0.43886" cy="0.472587" rx="0.43886" ry="0.472587" transform="matrix(0.999618 0.0276454 -0.023838 0.999716 825.351 129.069)" fill="white"/>
<ellipse cx="0.43886" cy="0.472587" rx="0.43886" ry="0.472587" transform="matrix(0.999618 0.0276454 -0.023838 0.999716 846.486 125.875)" fill="white"/>
<g style="mix-blend-mode:overlay">
<ellipse cx="0.43886" cy="0.472587" rx="0.43886" ry="0.472587" transform="matrix(0.999618 0.0276454 -0.023838 0.999716 861.687 77.1526)" fill="white"/>
</g>
<g style="mix-blend-mode:overlay">
<ellipse cx="0.43886" cy="0.472587" rx="0.43886" ry="0.472587" transform="matrix(0.999618 0.0276454 -0.023838 0.999716 840.372 87.9037)" fill="white"/>
</g>
<g style="mix-blend-mode:overlay">
<ellipse cx="0.506836" cy="0.4883" rx="0.506836" ry="0.4883" transform="matrix(0.470908 -0.882182 0.850238 0.526399 917.421 184.894)" fill="white"/>
</g>
<ellipse cx="0.506836" cy="0.4883" rx="0.506836" ry="0.4883" transform="matrix(0.470908 -0.882182 0.850238 0.526399 891.86 150.04)" fill="white"/>
<g style="mix-blend-mode:overlay">
<ellipse cx="0.506836" cy="0.4883" rx="0.506836" ry="0.4883" transform="matrix(0.470908 -0.882182 0.850238 0.526399 937.501 130.733)" fill="white"/>
</g>
<g style="mix-blend-mode:overlay">
<ellipse cx="0.506836" cy="0.4883" rx="0.506836" ry="0.4883" transform="matrix(0.470908 -0.882182 0.850238 0.526399 952.607 168.624)" fill="white"/>
</g>
<g style="mix-blend-mode:overlay">
<ellipse cx="1.01315" cy="0.976096" rx="1.01315" ry="0.976096" transform="matrix(0.470908 -0.882182 0.850238 0.526399 928.872 163.443)" fill="white"/>
</g>
<ellipse cx="1.01315" cy="0.976096" rx="1.01315" ry="0.976096" transform="matrix(0.470908 -0.882182 0.850238 0.526399 913.935 118.389)" fill="white"/>
<g style="mix-blend-mode:overlay">
<ellipse cx="1.01315" cy="0.976096" rx="1.01315" ry="0.976096" transform="matrix(0.470908 -0.882182 0.850238 0.526399 960.386 143.712)" fill="white"/>
</g>
<g style="mix-blend-mode:overlay">
<ellipse cx="0.506836" cy="0.4883" rx="0.506836" ry="0.4883" transform="matrix(0.470908 -0.882182 0.850238 0.526399 937.338 197.225)" fill="white"/>
</g>
<g style="mix-blend-mode:overlay">
<ellipse cx="0.506836" cy="0.4883" rx="0.506836" ry="0.4883" transform="matrix(0.470908 -0.882182 0.850238 0.526399 945.472 173.721)" fill="white"/>
</g>
<ellipse cx="0.506836" cy="0.4883" rx="0.506836" ry="0.4883" transform="matrix(0.470908 -0.882182 0.850238 0.526399 909.949 132.701)" fill="white"/>
<ellipse cx="0.506836" cy="0.4883" rx="0.506836" ry="0.4883" transform="matrix(0.470908 -0.882182 0.850238 0.526399 908.458 160.317)" fill="white"/>
<g style="mix-blend-mode:overlay">
<ellipse cx="1.12418" cy="1.08087" rx="1.12418" ry="1.08087" transform="matrix(-0.457295 -0.889315 0.858854 -0.512221 790.711 202.388)" fill="white"/>
</g>
<g style="mix-blend-mode:overlay">
<ellipse cx="0.562382" cy="0.540716" rx="0.562382" ry="0.540716" transform="matrix(-0.457295 -0.889315 0.858854 -0.512221 797.341 177.536)" fill="white"/>
</g>
<g style="mix-blend-mode:overlay">
<ellipse cx="0.562382" cy="0.540716" rx="0.562382" ry="0.540716" transform="matrix(-0.457295 -0.889315 0.858854 -0.512221 751.983 183.683)" fill="white"/>
</g>
<g style="mix-blend-mode:overlay">
<ellipse cx="0.562382" cy="0.540716" rx="0.562382" ry="0.540716" transform="matrix(-0.457295 -0.889315 0.858854 -0.512221 761.125 125.978)" fill="white"/>
</g>
<g style="mix-blend-mode:overlay">
<ellipse cx="0.562382" cy="0.540716" rx="0.562382" ry="0.540716" transform="matrix(-0.457295 -0.889315 0.858854 -0.512221 803.169 132.255)" fill="white"/>
</g>
<g style="mix-blend-mode:overlay">
<ellipse cx="1.12418" cy="1.08087" rx="1.12418" ry="1.08087" transform="matrix(-0.457295 -0.889315 0.858854 -0.512221 785.003 153.541)" fill="white"/>
</g>
<ellipse cx="1.12418" cy="1.08087" rx="1.12418" ry="1.08087" transform="matrix(-0.457295 -0.889315 0.858854 -0.512221 743.028 131.133)" fill="white"/>
<g style="mix-blend-mode:overlay">
<ellipse cx="1.12418" cy="1.08087" rx="1.12418" ry="1.08087" transform="matrix(-0.457295 -0.889315 0.858854 -0.512221 785.272 126.99)" fill="white"/>
</g>
<g style="mix-blend-mode:overlay">
<ellipse cx="0.562382" cy="0.540716" rx="0.562382" ry="0.540716" transform="matrix(-0.457295 -0.889315 0.858854 -0.512221 819.619 164.246)" fill="white"/>
</g>
<g style="mix-blend-mode:overlay">
<ellipse cx="0.562382" cy="0.540716" rx="0.562382" ry="0.540716" transform="matrix(-0.457295 -0.889315 0.858854 -0.512221 803.569 142.468)" fill="white"/>
</g>
<ellipse cx="0.562382" cy="0.540716" rx="0.562382" ry="0.540716" transform="matrix(-0.457295 -0.889315 0.858854 -0.512221 763.786 150.928)" fill="white"/>
<g style="mix-blend-mode:overlay">
<ellipse cx="0.562382" cy="0.540716" rx="0.562382" ry="0.540716" transform="matrix(-0.457295 -0.889315 0.858854 -0.512221 770.547 172.611)" fill="white"/>
</g>
<g style="mix-blend-mode:overlay">
<ellipse cx="0.921599" cy="0.876144" rx="0.921599" ry="0.876144" transform="matrix(0.395299 -0.917115 0.895761 0.447807 867.378 85.8033)" fill="white"/>
</g>
<ellipse cx="0.461038" cy="0.438298" rx="0.461038" ry="0.438298" transform="matrix(0.395299 -0.917115 0.895761 0.447807 829.413 41.5947)" fill="white"/>
<g style="mix-blend-mode:overlay">
<ellipse cx="0.461038" cy="0.438298" rx="0.461038" ry="0.438298" transform="matrix(0.395299 -0.917115 0.895761 0.447807 825.826 88.8185)" fill="white"/>
</g>
<ellipse cx="0.461038" cy="0.438298" rx="0.461038" ry="0.438298" transform="matrix(0.395299 -0.917115 0.895761 0.447807 825.844 88.0618)" fill="white"/>
<g style="mix-blend-mode:overlay">
<ellipse cx="0.461038" cy="0.438298" rx="0.461038" ry="0.438298" transform="matrix(0.395299 -0.917115 0.895761 0.447807 867.903 63.8599)" fill="white"/>
</g>
<g style="mix-blend-mode:overlay">
<ellipse cx="0.921599" cy="0.876144" rx="0.921599" ry="0.876144" transform="matrix(0.395299 -0.917115 0.895761 0.447807 862.498 54.6243)" fill="white"/>
</g>
<ellipse cx="0.921599" cy="0.876144" rx="0.921599" ry="0.876144" transform="matrix(0.395299 -0.917115 0.895761 0.447807 828.132 80.5534)" fill="white"/>
<g style="mix-blend-mode:overlay">
<ellipse cx="0.921599" cy="0.876144" rx="0.921599" ry="0.876144" transform="matrix(0.395299 -0.917115 0.895761 0.447807 868 74.4629)" fill="white"/>
</g>
<g style="mix-blend-mode:overlay">
<ellipse cx="0.461038" cy="0.438298" rx="0.461038" ry="0.438298" transform="matrix(0.395299 -0.917115 0.895761 0.447807 864.902 86.4919)" fill="white"/>
</g>
<ellipse cx="0.461038" cy="0.438298" rx="0.461038" ry="0.438298" transform="matrix(0.395299 -0.917115 0.895761 0.447807 839.456 62.6945)" fill="white"/>
<ellipse cx="0.461038" cy="0.438298" rx="0.461038" ry="0.438298" transform="matrix(0.395299 -0.917115 0.895761 0.447807 864.803 75.8888)" fill="white"/>
<g style="mix-blend-mode:overlay">
<ellipse cx="0.461038" cy="0.438298" rx="0.461038" ry="0.438298" transform="matrix(0.395299 -0.917115 0.895761 0.447807 870.027 92.691)" fill="white"/>
</g>
<g style="mix-blend-mode:overlay">
<ellipse cx="0.877267" cy="0.944686" rx="0.877267" ry="0.944686" transform="matrix(0.999618 0.0276454 -0.023838 0.999716 845.95 85.2106)" fill="white"/>
</g>
<g style="mix-blend-mode:overlay">
<ellipse cx="0.43886" cy="0.472587" rx="0.43886" ry="0.472587" transform="matrix(0.999618 0.0276454 -0.023838 0.999716 864.885 57.719)" fill="white"/>
</g>
<g style="mix-blend-mode:overlay">
<ellipse cx="0.43886" cy="0.472587" rx="0.43886" ry="0.472587" transform="matrix(0.999618 0.0276454 -0.023838 0.999716 867.993 45.3117)" fill="white"/>
</g>
<g style="mix-blend-mode:overlay">
<ellipse cx="0.43886" cy="0.472587" rx="0.43886" ry="0.472587" transform="matrix(0.999618 0.0276454 -0.023838 0.999716 829.944 48.8024)" fill="white"/>
</g>
<ellipse cx="0.43886" cy="0.472587" rx="0.43886" ry="0.472587" transform="matrix(0.999618 0.0276454 -0.023838 0.999716 827.61 87.7321)" fill="white"/>
<g style="mix-blend-mode:overlay">
<ellipse cx="0.877267" cy="0.944686" rx="0.877267" ry="0.944686" transform="matrix(0.999618 0.0276454 -0.023838 0.999716 827.52 61.9859)" fill="white"/>
</g>
<g style="mix-blend-mode:overlay">
<ellipse cx="0.877267" cy="0.944686" rx="0.877267" ry="0.944686" transform="matrix(0.999618 0.0276454 -0.023838 0.999716 840.284 72.1821)" fill="white"/>
</g>
<ellipse cx="0.877267" cy="0.944686" rx="0.877267" ry="0.944686" transform="matrix(0.999618 0.0276454 -0.023838 0.999716 862.308 62.5694)" fill="white"/>
<ellipse cx="0.43886" cy="0.472587" rx="0.43886" ry="0.472587" transform="matrix(0.999618 0.0276454 -0.023838 0.999716 848.617 47.0474)" fill="white"/>
<ellipse cx="0.43886" cy="0.472587" rx="0.43886" ry="0.472587" transform="matrix(0.999618 0.0276454 -0.023838 0.999716 865.056 65.2954)" fill="white"/>
<g style="mix-blend-mode:overlay">
<ellipse cx="0.43886" cy="0.472587" rx="0.43886" ry="0.472587" transform="matrix(0.999618 0.0276454 -0.023838 0.999716 819.584 85.2386)" fill="white"/>
</g>
<g style="mix-blend-mode:overlay">
<ellipse cx="0.43886" cy="0.472587" rx="0.43886" ry="0.472587" transform="matrix(0.999618 0.0276454 -0.023838 0.999716 839.87 60.0559)" fill="white"/>
</g>
<ellipse cx="1.0147" cy="0.974483" rx="1.0147" ry="0.974483" transform="matrix(0.470188 -0.880833 0.851645 0.52727 846.482 62.8888)" fill="white"/>
<g style="mix-blend-mode:overlay">
<ellipse cx="0.507612" cy="0.487493" rx="0.507612" ry="0.487493" transform="matrix(0.470188 -0.880833 0.851645 0.52727 860.074 53.043)" fill="white"/>
</g>
<ellipse cx="0.507612" cy="0.487493" rx="0.507612" ry="0.487493" transform="matrix(0.470188 -0.880833 0.851645 0.52727 863.209 83.795)" fill="white"/>
<g style="mix-blend-mode:overlay">
<ellipse cx="0.507612" cy="0.487493" rx="0.507612" ry="0.487493" transform="matrix(0.470188 -0.880833 0.851645 0.52727 821.188 47.4246)" fill="white"/>
</g>
<g style="mix-blend-mode:overlay">
<ellipse cx="0.507612" cy="0.487493" rx="0.507612" ry="0.487493" transform="matrix(0.470188 -0.880833 0.851645 0.52727 844.78 45.8055)" fill="white"/>
</g>
<g style="mix-blend-mode:overlay">
<ellipse cx="1.0147" cy="0.974483" rx="1.0147" ry="0.974483" transform="matrix(0.470188 -0.880833 0.851645 0.52727 823.845 83.4635)" fill="white"/>
</g>
<ellipse cx="1.0147" cy="0.974483" rx="1.0147" ry="0.974483" transform="matrix(0.470188 -0.880833 0.851645 0.52727 849.643 62.9763)" fill="white"/>
<g style="mix-blend-mode:overlay">
<ellipse cx="1.0147" cy="0.974483" rx="1.0147" ry="0.974483" transform="matrix(0.470188 -0.880833 0.851645 0.52727 853.039 67.9918)" fill="white"/>
</g>
<g style="mix-blend-mode:overlay">
<ellipse cx="0.507612" cy="0.487493" rx="0.507612" ry="0.487493" transform="matrix(0.470188 -0.880833 0.851645 0.52727 835.331 44.0298)" fill="white"/>
</g>
<g style="mix-blend-mode:overlay">
<ellipse cx="0.507612" cy="0.487493" rx="0.507612" ry="0.487493" transform="matrix(0.470188 -0.880833 0.851645 0.52727 870.695 49.9294)" fill="white"/>
</g>
<ellipse cx="0.507612" cy="0.487493" rx="0.507612" ry="0.487493" transform="matrix(0.470188 -0.880833 0.851645 0.52727 835.816 82.6589)" fill="white"/>
<ellipse cx="0.507612" cy="0.487493" rx="0.507612" ry="0.487493" transform="matrix(0.470188 -0.880833 0.851645 0.52727 849.643 62.9763)" fill="white"/>
<g style="mix-blend-mode:overlay">
<ellipse cx="1.12239" cy="1.08274" rx="1.12239" ry="1.08274" transform="matrix(-0.458027 -0.890738 0.857374 -0.511339 871.559 43.1389)" fill="white"/>
</g>
<g style="mix-blend-mode:overlay">
<ellipse cx="0.561484" cy="0.54165" rx="0.561484" ry="0.54165" transform="matrix(-0.458027 -0.890738 0.857374 -0.511339 846.616 71.9786)" fill="white"/>
</g>
<g style="mix-blend-mode:overlay">
<ellipse cx="0.561484" cy="0.54165" rx="0.561484" ry="0.54165" transform="matrix(-0.458027 -0.890738 0.857374 -0.511339 824.737 46.0084)" fill="white"/>
</g>
<g style="mix-blend-mode:overlay">
<ellipse cx="0.561484" cy="0.54165" rx="0.561484" ry="0.54165" transform="matrix(-0.458027 -0.890738 0.857374 -0.511339 867.65 74.4532)" fill="white"/>
</g>
<g style="mix-blend-mode:overlay">
<ellipse cx="0.561484" cy="0.54165" rx="0.561484" ry="0.54165" transform="matrix(-0.458027 -0.890738 0.857374 -0.511339 855.381 58.2134)" fill="white"/>
</g>
<g style="mix-blend-mode:overlay">
<ellipse cx="1.12239" cy="1.08274" rx="1.12239" ry="1.08274" transform="matrix(-0.458027 -0.890738 0.857374 -0.511339 827.709 83.5704)" fill="white"/>
</g>
<ellipse cx="1.12239" cy="1.08274" rx="1.12239" ry="1.08274" transform="matrix(-0.458027 -0.890738 0.857374 -0.511339 859.777 80.2928)" fill="white"/>
<g style="mix-blend-mode:overlay">
<ellipse cx="1.12239" cy="1.08274" rx="1.12239" ry="1.08274" transform="matrix(-0.458027 -0.890738 0.857374 -0.511339 862.398 88.3156)" fill="white"/>
</g>
<g style="mix-blend-mode:overlay">
<ellipse cx="0.561484" cy="0.54165" rx="0.561484" ry="0.54165" transform="matrix(-0.458027 -0.890738 0.857374 -0.511339 848.067 70.1258)" fill="white"/>
</g>
<g style="mix-blend-mode:overlay">
<ellipse cx="0.561484" cy="0.54165" rx="0.561484" ry="0.54165" transform="matrix(-0.458027 -0.890738 0.857374 -0.511339 865.309 39.9373)" fill="white"/>
</g>
<ellipse cx="0.561484" cy="0.54165" rx="0.561484" ry="0.54165" transform="matrix(-0.458027 -0.890738 0.857374 -0.511339 844.752 76.4701)" fill="white"/>
<g style="mix-blend-mode:overlay">
<ellipse cx="0.561484" cy="0.54165" rx="0.561484" ry="0.54165" transform="matrix(-0.458027 -0.890738 0.857374 -0.511339 819.647 82.5902)" fill="white"/>
</g>
<g style="mix-blend-mode:overlay">
<ellipse cx="0.920383" cy="0.877421" rx="0.920383" ry="0.877421" transform="matrix(0.395822 -0.918327 0.894457 0.447155 821.25 79.6607)" fill="white"/>
</g>
<ellipse cx="0.460429" cy="0.438938" rx="0.460429" ry="0.438938" transform="matrix(0.395822 -0.918327 0.894457 0.447155 839.635 72.4137)" fill="white"/>
<g style="mix-blend-mode:overlay">
<ellipse cx="0.460429" cy="0.438938" rx="0.460429" ry="0.438938" transform="matrix(0.395822 -0.918327 0.894457 0.447155 814.073 43.1968)" fill="white"/>
</g>
<ellipse cx="0.460429" cy="0.438938" rx="0.460429" ry="0.438938" transform="matrix(0.395822 -0.918327 0.894457 0.447155 891.985 46.1522)" fill="white"/>
<g style="mix-blend-mode:overlay">
<ellipse cx="0.460429" cy="0.438938" rx="0.460429" ry="0.438938" transform="matrix(0.395822 -0.918327 0.894457 0.447155 870.13 54.7847)" fill="white"/>
</g>
<g style="mix-blend-mode:overlay">
<ellipse cx="0.920383" cy="0.877421" rx="0.920383" ry="0.877421" transform="matrix(0.395822 -0.918327 0.894457 0.447155 848.381 52.1301)" fill="white"/>
</g>
<ellipse cx="0.920383" cy="0.877421" rx="0.920383" ry="0.877421" transform="matrix(0.395822 -0.918327 0.894457 0.447155 830.001 45.0002)" fill="white"/>
<g style="mix-blend-mode:overlay">
<ellipse cx="0.920383" cy="0.877421" rx="0.920383" ry="0.877421" transform="matrix(0.395822 -0.918327 0.894457 0.447155 875.314 31.6904)" fill="white"/>
</g>
<g style="mix-blend-mode:overlay">
<ellipse cx="0.460429" cy="0.438938" rx="0.460429" ry="0.438938" transform="matrix(0.395822 -0.918327 0.894457 0.447155 858.472 81.8296)" fill="white"/>
</g>
<ellipse cx="0.460429" cy="0.438938" rx="0.460429" ry="0.438938" transform="matrix(0.395822 -0.918327 0.894457 0.447155 864.078 59.9771)" fill="white"/>
<ellipse cx="0.460429" cy="0.438938" rx="0.460429" ry="0.438938" transform="matrix(0.395822 -0.918327 0.894457 0.447155 852.562 38.1421)" fill="white"/>
<g style="mix-blend-mode:overlay">
<ellipse cx="0.460429" cy="0.438938" rx="0.460429" ry="0.438938" transform="matrix(0.395822 -0.918327 0.894457 0.447155 829.769 51.0446)" fill="white"/>
</g>
<g style="mix-blend-mode:overlay">
<ellipse cx="0.877267" cy="0.944686" rx="0.877267" ry="0.944686" transform="matrix(0.999618 0.0276454 -0.023838 0.999716 874.218 84.905)" fill="white"/>
</g>
<g style="mix-blend-mode:overlay">
<ellipse cx="0.43886" cy="0.472587" rx="0.43886" ry="0.472587" transform="matrix(0.999618 0.0276454 -0.023838 0.999716 887.892 100.406)" fill="white"/>
</g>
<g style="mix-blend-mode:overlay">
<ellipse cx="0.43886" cy="0.472587" rx="0.43886" ry="0.472587" transform="matrix(0.999618 0.0276454 -0.023838 0.999716 902.823 63.0145)" fill="white"/>
</g>
<g style="mix-blend-mode:overlay">
<ellipse cx="0.43886" cy="0.472587" rx="0.43886" ry="0.472587" transform="matrix(0.999618 0.0276454 -0.023838 0.999716 937.178 94.2069)" fill="white"/>
</g>
<ellipse cx="0.43886" cy="0.472587" rx="0.43886" ry="0.472587" transform="matrix(0.999618 0.0276454 -0.023838 0.999716 915.413 123.846)" fill="white"/>
<g style="mix-blend-mode:overlay">
<ellipse cx="0.877267" cy="0.944686" rx="0.877267" ry="0.944686" transform="matrix(0.999618 0.0276454 -0.023838 0.999716 908.935 100.987)" fill="white"/>
</g>
<g style="mix-blend-mode:overlay">
<ellipse cx="0.877267" cy="0.944686" rx="0.877267" ry="0.944686" transform="matrix(0.999618 0.0276454 -0.023838 0.999716 930.702 71.3466)" fill="white"/>
</g>
<ellipse cx="0.877267" cy="0.944686" rx="0.877267" ry="0.944686" transform="matrix(0.999618 0.0276454 -0.023838 0.999716 937.447 119.73)" fill="white"/>
<ellipse cx="0.43886" cy="0.472587" rx="0.43886" ry="0.472587" transform="matrix(0.999618 0.0276454 -0.023838 0.999716 887.351 123.069)" fill="white"/>
<ellipse cx="0.43886" cy="0.472587" rx="0.43886" ry="0.472587" transform="matrix(0.999618 0.0276454 -0.023838 0.999716 908.486 119.875)" fill="white"/>
<g style="mix-blend-mode:overlay">
<ellipse cx="0.43886" cy="0.472587" rx="0.43886" ry="0.472587" transform="matrix(0.999618 0.0276454 -0.023838 0.999716 923.687 71.1526)" fill="white"/>
</g>
<g style="mix-blend-mode:overlay">
<ellipse cx="0.43886" cy="0.472587" rx="0.43886" ry="0.472587" transform="matrix(0.999618 0.0276454 -0.023838 0.999716 902.372 81.9037)" fill="white"/>
</g>
<g style="mix-blend-mode:overlay">
<ellipse cx="0.506836" cy="0.4883" rx="0.506836" ry="0.4883" transform="matrix(0.470908 -0.882182 0.850238 0.526399 979.421 178.894)" fill="white"/>
</g>
<ellipse cx="0.506836" cy="0.4883" rx="0.506836" ry="0.4883" transform="matrix(0.470908 -0.882182 0.850238 0.526399 953.86 144.04)" fill="white"/>
<g style="mix-blend-mode:overlay">
<ellipse cx="0.506836" cy="0.4883" rx="0.506836" ry="0.4883" transform="matrix(0.470908 -0.882182 0.850238 0.526399 999.501 124.733)" fill="white"/>
</g>
<g style="mix-blend-mode:overlay">
<ellipse cx="0.506836" cy="0.4883" rx="0.506836" ry="0.4883" transform="matrix(0.470908 -0.882182 0.850238 0.526399 1014.61 162.624)" fill="white"/>
</g>
<g style="mix-blend-mode:overlay">
<ellipse cx="1.01315" cy="0.976096" rx="1.01315" ry="0.976096" transform="matrix(0.470908 -0.882182 0.850238 0.526399 990.872 157.443)" fill="white"/>
</g>
<ellipse cx="1.01315" cy="0.976096" rx="1.01315" ry="0.976096" transform="matrix(0.470908 -0.882182 0.850238 0.526399 975.935 112.389)" fill="white"/>
<g style="mix-blend-mode:overlay">
<ellipse cx="1.01315" cy="0.976096" rx="1.01315" ry="0.976096" transform="matrix(0.470908 -0.882182 0.850238 0.526399 1022.39 137.712)" fill="white"/>
</g>
<g style="mix-blend-mode:overlay">
<ellipse cx="0.506836" cy="0.4883" rx="0.506836" ry="0.4883" transform="matrix(0.470908 -0.882182 0.850238 0.526399 999.338 191.225)" fill="white"/>
</g>
<g style="mix-blend-mode:overlay">
<ellipse cx="0.506836" cy="0.4883" rx="0.506836" ry="0.4883" transform="matrix(0.470908 -0.882182 0.850238 0.526399 1007.47 167.721)" fill="white"/>
</g>
<ellipse cx="0.506836" cy="0.4883" rx="0.506836" ry="0.4883" transform="matrix(0.470908 -0.882182 0.850238 0.526399 971.949 126.701)" fill="white"/>
<ellipse cx="0.506836" cy="0.4883" rx="0.506836" ry="0.4883" transform="matrix(0.470908 -0.882182 0.850238 0.526399 970.458 154.317)" fill="white"/>
<g style="mix-blend-mode:overlay">
<ellipse cx="1.12418" cy="1.08087" rx="1.12418" ry="1.08087" transform="matrix(-0.457295 -0.889315 0.858854 -0.512221 852.711 196.388)" fill="white"/>
</g>
<g style="mix-blend-mode:overlay">
<ellipse cx="0.562382" cy="0.540716" rx="0.562382" ry="0.540716" transform="matrix(-0.457295 -0.889315 0.858854 -0.512221 859.341 171.536)" fill="white"/>
</g>
<g style="mix-blend-mode:overlay">
<ellipse cx="0.562382" cy="0.540716" rx="0.562382" ry="0.540716" transform="matrix(-0.457295 -0.889315 0.858854 -0.512221 813.983 177.683)" fill="white"/>
</g>
<g style="mix-blend-mode:overlay">
<ellipse cx="0.562382" cy="0.540716" rx="0.562382" ry="0.540716" transform="matrix(-0.457295 -0.889315 0.858854 -0.512221 823.125 119.978)" fill="white"/>
</g>
<g style="mix-blend-mode:overlay">
<ellipse cx="0.562382" cy="0.540716" rx="0.562382" ry="0.540716" transform="matrix(-0.457295 -0.889315 0.858854 -0.512221 865.169 126.255)" fill="white"/>
</g>
<g style="mix-blend-mode:overlay">
<ellipse cx="1.12418" cy="1.08087" rx="1.12418" ry="1.08087" transform="matrix(-0.457295 -0.889315 0.858854 -0.512221 847.003 147.541)" fill="white"/>
</g>
<ellipse cx="1.12418" cy="1.08087" rx="1.12418" ry="1.08087" transform="matrix(-0.457295 -0.889315 0.858854 -0.512221 805.028 125.133)" fill="white"/>
<g style="mix-blend-mode:overlay">
<ellipse cx="1.12418" cy="1.08087" rx="1.12418" ry="1.08087" transform="matrix(-0.457295 -0.889315 0.858854 -0.512221 847.272 120.99)" fill="white"/>
</g>
<g style="mix-blend-mode:overlay">
<ellipse cx="0.562382" cy="0.540716" rx="0.562382" ry="0.540716" transform="matrix(-0.457295 -0.889315 0.858854 -0.512221 881.619 158.246)" fill="white"/>
</g>
<g style="mix-blend-mode:overlay">
<ellipse cx="0.562382" cy="0.540716" rx="0.562382" ry="0.540716" transform="matrix(-0.457295 -0.889315 0.858854 -0.512221 865.569 136.468)" fill="white"/>
</g>
<ellipse cx="0.562382" cy="0.540716" rx="0.562382" ry="0.540716" transform="matrix(-0.457295 -0.889315 0.858854 -0.512221 825.786 144.928)" fill="white"/>
<g style="mix-blend-mode:overlay">
<ellipse cx="0.562382" cy="0.540716" rx="0.562382" ry="0.540716" transform="matrix(-0.457295 -0.889315 0.858854 -0.512221 832.547 166.611)" fill="white"/>
</g>
<g style="mix-blend-mode:overlay">
<ellipse cx="0.921599" cy="0.876144" rx="0.921599" ry="0.876144" transform="matrix(0.395299 -0.917115 0.895761 0.447807 929.378 79.8033)" fill="white"/>
</g>
<ellipse cx="0.461038" cy="0.438298" rx="0.461038" ry="0.438298" transform="matrix(0.395299 -0.917115 0.895761 0.447807 891.413 35.5947)" fill="white"/>
<g style="mix-blend-mode:overlay">
<ellipse cx="0.461038" cy="0.438298" rx="0.461038" ry="0.438298" transform="matrix(0.395299 -0.917115 0.895761 0.447807 887.826 82.8185)" fill="white"/>
</g>
<ellipse cx="0.461038" cy="0.438298" rx="0.461038" ry="0.438298" transform="matrix(0.395299 -0.917115 0.895761 0.447807 887.844 82.0618)" fill="white"/>
<g style="mix-blend-mode:overlay">
<ellipse cx="0.461038" cy="0.438298" rx="0.461038" ry="0.438298" transform="matrix(0.395299 -0.917115 0.895761 0.447807 929.903 57.8599)" fill="white"/>
</g>
<g style="mix-blend-mode:overlay">
<ellipse cx="0.921599" cy="0.876144" rx="0.921599" ry="0.876144" transform="matrix(0.395299 -0.917115 0.895761 0.447807 924.498 48.6243)" fill="white"/>
</g>
<ellipse cx="0.921599" cy="0.876144" rx="0.921599" ry="0.876144" transform="matrix(0.395299 -0.917115 0.895761 0.447807 890.132 74.5534)" fill="white"/>
<g style="mix-blend-mode:overlay">
<ellipse cx="0.921599" cy="0.876144" rx="0.921599" ry="0.876144" transform="matrix(0.395299 -0.917115 0.895761 0.447807 930 68.4629)" fill="white"/>
</g>
<g style="mix-blend-mode:overlay">
<ellipse cx="0.461038" cy="0.438298" rx="0.461038" ry="0.438298" transform="matrix(0.395299 -0.917115 0.895761 0.447807 926.902 80.4919)" fill="white"/>
</g>
<ellipse cx="0.461038" cy="0.438298" rx="0.461038" ry="0.438298" transform="matrix(0.395299 -0.917115 0.895761 0.447807 901.456 56.6945)" fill="white"/>
<ellipse cx="0.461038" cy="0.438298" rx="0.461038" ry="0.438298" transform="matrix(0.395299 -0.917115 0.895761 0.447807 926.803 69.8888)" fill="white"/>
<g style="mix-blend-mode:overlay">
<ellipse cx="0.461038" cy="0.438298" rx="0.461038" ry="0.438298" transform="matrix(0.395299 -0.917115 0.895761 0.447807 932.027 86.691)" fill="white"/>
</g>
<g style="mix-blend-mode:overlay">
<ellipse cx="0.877267" cy="0.944686" rx="0.877267" ry="0.944686" transform="matrix(0.999618 0.0276454 -0.023838 0.999716 907.95 79.2106)" fill="white"/>
</g>
<g style="mix-blend-mode:overlay">
<ellipse cx="0.43886" cy="0.472587" rx="0.43886" ry="0.472587" transform="matrix(0.999618 0.0276454 -0.023838 0.999716 926.885 51.719)" fill="white"/>
</g>
<g style="mix-blend-mode:overlay">
<ellipse cx="0.43886" cy="0.472587" rx="0.43886" ry="0.472587" transform="matrix(0.999618 0.0276454 -0.023838 0.999716 929.993 39.3117)" fill="white"/>
</g>
<g style="mix-blend-mode:overlay">
<ellipse cx="0.43886" cy="0.472587" rx="0.43886" ry="0.472587" transform="matrix(0.999618 0.0276454 -0.023838 0.999716 891.944 42.8024)" fill="white"/>
</g>
<ellipse cx="0.43886" cy="0.472587" rx="0.43886" ry="0.472587" transform="matrix(0.999618 0.0276454 -0.023838 0.999716 889.61 81.7321)" fill="white"/>
<g style="mix-blend-mode:overlay">
<ellipse cx="0.877267" cy="0.944686" rx="0.877267" ry="0.944686" transform="matrix(0.999618 0.0276454 -0.023838 0.999716 889.52 55.9859)" fill="white"/>
</g>
<g style="mix-blend-mode:overlay">
<ellipse cx="0.877267" cy="0.944686" rx="0.877267" ry="0.944686" transform="matrix(0.999618 0.0276454 -0.023838 0.999716 902.284 66.1821)" fill="white"/>
</g>
<ellipse cx="0.877267" cy="0.944686" rx="0.877267" ry="0.944686" transform="matrix(0.999618 0.0276454 -0.023838 0.999716 924.308 56.5694)" fill="white"/>
<ellipse cx="0.43886" cy="0.472587" rx="0.43886" ry="0.472587" transform="matrix(0.999618 0.0276454 -0.023838 0.999716 910.617 41.0474)" fill="white"/>
<ellipse cx="0.43886" cy="0.472587" rx="0.43886" ry="0.472587" transform="matrix(0.999618 0.0276454 -0.023838 0.999716 927.056 59.2954)" fill="white"/>
<g style="mix-blend-mode:overlay">
<ellipse cx="0.43886" cy="0.472587" rx="0.43886" ry="0.472587" transform="matrix(0.999618 0.0276454 -0.023838 0.999716 881.584 79.2386)" fill="white"/>
</g>
<g style="mix-blend-mode:overlay">
<ellipse cx="0.43886" cy="0.472587" rx="0.43886" ry="0.472587" transform="matrix(0.999618 0.0276454 -0.023838 0.999716 901.87 54.0559)" fill="white"/>
</g>
<ellipse cx="1.0147" cy="0.974483" rx="1.0147" ry="0.974483" transform="matrix(0.470188 -0.880833 0.851645 0.52727 908.482 56.8888)" fill="white"/>
<g style="mix-blend-mode:overlay">
<ellipse cx="0.507612" cy="0.487493" rx="0.507612" ry="0.487493" transform="matrix(0.470188 -0.880833 0.851645 0.52727 922.074 47.043)" fill="white"/>
</g>
<ellipse cx="0.507612" cy="0.487493" rx="0.507612" ry="0.487493" transform="matrix(0.470188 -0.880833 0.851645 0.52727 925.209 77.795)" fill="white"/>
<g style="mix-blend-mode:overlay">
<ellipse cx="0.507612" cy="0.487493" rx="0.507612" ry="0.487493" transform="matrix(0.470188 -0.880833 0.851645 0.52727 883.188 41.4246)" fill="white"/>
</g>
<g style="mix-blend-mode:overlay">
<ellipse cx="0.507612" cy="0.487493" rx="0.507612" ry="0.487493" transform="matrix(0.470188 -0.880833 0.851645 0.52727 906.78 39.8055)" fill="white"/>
</g>
<g style="mix-blend-mode:overlay">
<ellipse cx="1.0147" cy="0.974483" rx="1.0147" ry="0.974483" transform="matrix(0.470188 -0.880833 0.851645 0.52727 885.845 77.4635)" fill="white"/>
</g>
<ellipse cx="1.0147" cy="0.974483" rx="1.0147" ry="0.974483" transform="matrix(0.470188 -0.880833 0.851645 0.52727 911.643 56.9763)" fill="white"/>
<g style="mix-blend-mode:overlay">
<ellipse cx="1.0147" cy="0.974483" rx="1.0147" ry="0.974483" transform="matrix(0.470188 -0.880833 0.851645 0.52727 915.039 61.9918)" fill="white"/>
</g>
<g style="mix-blend-mode:overlay">
<ellipse cx="0.507612" cy="0.487493" rx="0.507612" ry="0.487493" transform="matrix(0.470188 -0.880833 0.851645 0.52727 897.331 38.0298)" fill="white"/>
</g>
<g style="mix-blend-mode:overlay">
<ellipse cx="0.507612" cy="0.487493" rx="0.507612" ry="0.487493" transform="matrix(0.470188 -0.880833 0.851645 0.52727 932.695 43.9294)" fill="white"/>
</g>
<ellipse cx="0.507612" cy="0.487493" rx="0.507612" ry="0.487493" transform="matrix(0.470188 -0.880833 0.851645 0.52727 897.816 76.6589)" fill="white"/>
<ellipse cx="0.507612" cy="0.487493" rx="0.507612" ry="0.487493" transform="matrix(0.470188 -0.880833 0.851645 0.52727 911.643 56.9763)" fill="white"/>
<g style="mix-blend-mode:overlay">
<ellipse cx="1.12239" cy="1.08274" rx="1.12239" ry="1.08274" transform="matrix(-0.458027 -0.890738 0.857374 -0.511339 933.559 37.1389)" fill="white"/>
</g>
<g style="mix-blend-mode:overlay">
<ellipse cx="0.561484" cy="0.54165" rx="0.561484" ry="0.54165" transform="matrix(-0.458027 -0.890738 0.857374 -0.511339 908.616 65.9786)" fill="white"/>
</g>
<g style="mix-blend-mode:overlay">
<ellipse cx="0.561484" cy="0.54165" rx="0.561484" ry="0.54165" transform="matrix(-0.458027 -0.890738 0.857374 -0.511339 886.737 40.0084)" fill="white"/>
</g>
<g style="mix-blend-mode:overlay">
<ellipse cx="0.561484" cy="0.54165" rx="0.561484" ry="0.54165" transform="matrix(-0.458027 -0.890738 0.857374 -0.511339 929.65 68.4532)" fill="white"/>
</g>
<g style="mix-blend-mode:overlay">
<ellipse cx="0.561484" cy="0.54165" rx="0.561484" ry="0.54165" transform="matrix(-0.458027 -0.890738 0.857374 -0.511339 917.381 52.2134)" fill="white"/>
</g>
<g style="mix-blend-mode:overlay">
<ellipse cx="1.12239" cy="1.08274" rx="1.12239" ry="1.08274" transform="matrix(-0.458027 -0.890738 0.857374 -0.511339 889.709 77.5704)" fill="white"/>
</g>
<ellipse cx="1.12239" cy="1.08274" rx="1.12239" ry="1.08274" transform="matrix(-0.458027 -0.890738 0.857374 -0.511339 921.777 74.2928)" fill="white"/>
<g style="mix-blend-mode:overlay">
<ellipse cx="1.12239" cy="1.08274" rx="1.12239" ry="1.08274" transform="matrix(-0.458027 -0.890738 0.857374 -0.511339 924.398 82.3156)" fill="white"/>
</g>
<g style="mix-blend-mode:overlay">
<ellipse cx="0.561484" cy="0.54165" rx="0.561484" ry="0.54165" transform="matrix(-0.458027 -0.890738 0.857374 -0.511339 910.067 64.1258)" fill="white"/>
</g>
<g style="mix-blend-mode:overlay">
<ellipse cx="0.561484" cy="0.54165" rx="0.561484" ry="0.54165" transform="matrix(-0.458027 -0.890738 0.857374 -0.511339 927.309 33.9373)" fill="white"/>
</g>
<ellipse cx="0.561484" cy="0.54165" rx="0.561484" ry="0.54165" transform="matrix(-0.458027 -0.890738 0.857374 -0.511339 906.752 70.4701)" fill="white"/>
<g style="mix-blend-mode:overlay">
<ellipse cx="0.561484" cy="0.54165" rx="0.561484" ry="0.54165" transform="matrix(-0.458027 -0.890738 0.857374 -0.511339 881.647 76.5902)" fill="white"/>
</g>
<g style="mix-blend-mode:overlay">
<ellipse cx="0.920383" cy="0.877421" rx="0.920383" ry="0.877421" transform="matrix(0.395822 -0.918327 0.894457 0.447155 685.25 171.661)" fill="white"/>
</g>
<ellipse cx="0.460429" cy="0.438938" rx="0.460429" ry="0.438938" transform="matrix(0.395822 -0.918327 0.894457 0.447155 703.635 164.414)" fill="white"/>
<g style="mix-blend-mode:overlay">
<ellipse cx="0.460429" cy="0.438938" rx="0.460429" ry="0.438938" transform="matrix(0.395822 -0.918327 0.894457 0.447155 678.073 135.197)" fill="white"/>
</g>
<ellipse cx="0.460429" cy="0.438938" rx="0.460429" ry="0.438938" transform="matrix(0.395822 -0.918327 0.894457 0.447155 755.984 138.152)" fill="white"/>
<g style="mix-blend-mode:overlay">
<ellipse cx="0.460429" cy="0.438938" rx="0.460429" ry="0.438938" transform="matrix(0.395822 -0.918327 0.894457 0.447155 734.13 146.785)" fill="white"/>
</g>
<g style="mix-blend-mode:overlay">
<ellipse cx="0.920383" cy="0.877421" rx="0.920383" ry="0.877421" transform="matrix(0.395822 -0.918327 0.894457 0.447155 712.381 144.13)" fill="white"/>
</g>
<ellipse cx="0.920383" cy="0.877421" rx="0.920383" ry="0.877421" transform="matrix(0.395822 -0.918327 0.894457 0.447155 694.001 137)" fill="white"/>
<g style="mix-blend-mode:overlay">
<ellipse cx="0.920383" cy="0.877421" rx="0.920383" ry="0.877421" transform="matrix(0.395822 -0.918327 0.894457 0.447155 739.314 123.69)" fill="white"/>
</g>
<g style="mix-blend-mode:overlay">
<ellipse cx="0.460429" cy="0.438938" rx="0.460429" ry="0.438938" transform="matrix(0.395822 -0.918327 0.894457 0.447155 722.472 173.83)" fill="white"/>
</g>
<ellipse cx="0.460429" cy="0.438938" rx="0.460429" ry="0.438938" transform="matrix(0.395822 -0.918327 0.894457 0.447155 728.078 151.977)" fill="white"/>
<ellipse cx="0.460429" cy="0.438938" rx="0.460429" ry="0.438938" transform="matrix(0.395822 -0.918327 0.894457 0.447155 716.562 130.142)" fill="white"/>
<g style="mix-blend-mode:overlay">
<ellipse cx="0.460429" cy="0.438938" rx="0.460429" ry="0.438938" transform="matrix(0.395822 -0.918327 0.894457 0.447155 693.769 143.045)" fill="white"/>
</g>
<g style="mix-blend-mode:overlay">
<ellipse cx="0.877267" cy="0.944686" rx="0.877267" ry="0.944686" transform="matrix(0.999618 0.0276454 -0.023838 0.999716 738.218 176.905)" fill="white"/>
</g>
<g style="mix-blend-mode:overlay">
<ellipse cx="0.43886" cy="0.472587" rx="0.43886" ry="0.472587" transform="matrix(0.999618 0.0276454 -0.023838 0.999716 751.892 192.406)" fill="white"/>
</g>
<g style="mix-blend-mode:overlay">
<ellipse cx="0.43886" cy="0.472587" rx="0.43886" ry="0.472587" transform="matrix(0.999618 0.0276454 -0.023838 0.999716 766.823 155.015)" fill="white"/>
</g>
<g style="mix-blend-mode:overlay">
<ellipse cx="0.43886" cy="0.472587" rx="0.43886" ry="0.472587" transform="matrix(0.999618 0.0276454 -0.023838 0.999716 801.178 186.207)" fill="white"/>
</g>
<ellipse cx="0.43886" cy="0.472587" rx="0.43886" ry="0.472587" transform="matrix(0.999618 0.0276454 -0.023838 0.999716 779.413 215.846)" fill="white"/>
<g style="mix-blend-mode:overlay">
<ellipse cx="0.877267" cy="0.944686" rx="0.877267" ry="0.944686" transform="matrix(0.999618 0.0276454 -0.023838 0.999716 772.935 192.987)" fill="white"/>
</g>
<g style="mix-blend-mode:overlay">
<ellipse cx="0.877267" cy="0.944686" rx="0.877267" ry="0.944686" transform="matrix(0.999618 0.0276454 -0.023838 0.999716 794.702 163.347)" fill="white"/>
</g>
<ellipse cx="0.877267" cy="0.944686" rx="0.877267" ry="0.944686" transform="matrix(0.999618 0.0276454 -0.023838 0.999716 801.447 211.73)" fill="white"/>
<ellipse cx="0.43886" cy="0.472587" rx="0.43886" ry="0.472587" transform="matrix(0.999618 0.0276454 -0.023838 0.999716 751.351 215.069)" fill="white"/>
<ellipse cx="0.43886" cy="0.472587" rx="0.43886" ry="0.472587" transform="matrix(0.999618 0.0276454 -0.023838 0.999716 772.486 211.875)" fill="white"/>
<g style="mix-blend-mode:overlay">
<ellipse cx="0.43886" cy="0.472587" rx="0.43886" ry="0.472587" transform="matrix(0.999618 0.0276454 -0.023838 0.999716 787.687 163.153)" fill="white"/>
</g>
<g style="mix-blend-mode:overlay">
<ellipse cx="0.43886" cy="0.472587" rx="0.43886" ry="0.472587" transform="matrix(0.999618 0.0276454 -0.023838 0.999716 766.372 173.904)" fill="white"/>
</g>
<g style="mix-blend-mode:overlay">
<ellipse cx="0.506836" cy="0.4883" rx="0.506836" ry="0.4883" transform="matrix(0.470908 -0.882182 0.850238 0.526399 863.501 216.733)" fill="white"/>
</g>
<ellipse cx="1.01315" cy="0.976096" rx="1.01315" ry="0.976096" transform="matrix(0.470908 -0.882182 0.850238 0.526399 839.935 204.389)" fill="white"/>
<g style="mix-blend-mode:overlay">
<ellipse cx="1.01315" cy="0.976096" rx="1.01315" ry="0.976096" transform="matrix(0.470908 -0.882182 0.850238 0.526399 886.386 229.712)" fill="white"/>
</g>
<ellipse cx="0.506836" cy="0.4883" rx="0.506836" ry="0.4883" transform="matrix(0.470908 -0.882182 0.850238 0.526399 835.949 218.701)" fill="white"/>
<g style="mix-blend-mode:overlay">
<ellipse cx="0.562382" cy="0.540716" rx="0.562382" ry="0.540716" transform="matrix(-0.457295 -0.889315 0.858854 -0.512221 687.125 211.978)" fill="white"/>
</g>
<g style="mix-blend-mode:overlay">
<ellipse cx="0.562382" cy="0.540716" rx="0.562382" ry="0.540716" transform="matrix(-0.457295 -0.889315 0.858854 -0.512221 729.169 218.255)" fill="white"/>
</g>
<ellipse cx="1.12418" cy="1.08087" rx="1.12418" ry="1.08087" transform="matrix(-0.457295 -0.889315 0.858854 -0.512221 669.028 217.133)" fill="white"/>
<g style="mix-blend-mode:overlay">
<ellipse cx="1.12418" cy="1.08087" rx="1.12418" ry="1.08087" transform="matrix(-0.457295 -0.889315 0.858854 -0.512221 711.272 212.99)" fill="white"/>
</g>
<g style="mix-blend-mode:overlay">
<ellipse cx="0.562382" cy="0.540716" rx="0.562382" ry="0.540716" transform="matrix(-0.457295 -0.889315 0.858854 -0.512221 729.569 228.468)" fill="white"/>
</g>
<g style="mix-blend-mode:overlay">
<ellipse cx="0.921599" cy="0.876144" rx="0.921599" ry="0.876144" transform="matrix(0.395299 -0.917115 0.895761 0.447807 793.378 171.803)" fill="white"/>
</g>
<ellipse cx="0.461038" cy="0.438298" rx="0.461038" ry="0.438298" transform="matrix(0.395299 -0.917115 0.895761 0.447807 755.413 127.595)" fill="white"/>
<g style="mix-blend-mode:overlay">
<ellipse cx="0.461038" cy="0.438298" rx="0.461038" ry="0.438298" transform="matrix(0.395299 -0.917115 0.895761 0.447807 751.826 174.819)" fill="white"/>
</g>
<ellipse cx="0.461038" cy="0.438298" rx="0.461038" ry="0.438298" transform="matrix(0.395299 -0.917115 0.895761 0.447807 751.844 174.062)" fill="white"/>
<g style="mix-blend-mode:overlay">
<ellipse cx="0.461038" cy="0.438298" rx="0.461038" ry="0.438298" transform="matrix(0.395299 -0.917115 0.895761 0.447807 793.903 149.86)" fill="white"/>
</g>
<g style="mix-blend-mode:overlay">
<ellipse cx="0.921599" cy="0.876144" rx="0.921599" ry="0.876144" transform="matrix(0.395299 -0.917115 0.895761 0.447807 788.498 140.624)" fill="white"/>
</g>
<ellipse cx="0.921599" cy="0.876144" rx="0.921599" ry="0.876144" transform="matrix(0.395299 -0.917115 0.895761 0.447807 754.132 166.553)" fill="white"/>
<g style="mix-blend-mode:overlay">
<ellipse cx="0.921599" cy="0.876144" rx="0.921599" ry="0.876144" transform="matrix(0.395299 -0.917115 0.895761 0.447807 794 160.463)" fill="white"/>
</g>
<g style="mix-blend-mode:overlay">
<ellipse cx="0.461038" cy="0.438298" rx="0.461038" ry="0.438298" transform="matrix(0.395299 -0.917115 0.895761 0.447807 790.902 172.492)" fill="white"/>
</g>
<ellipse cx="0.461038" cy="0.438298" rx="0.461038" ry="0.438298" transform="matrix(0.395299 -0.917115 0.895761 0.447807 765.456 148.695)" fill="white"/>
<ellipse cx="0.461038" cy="0.438298" rx="0.461038" ry="0.438298" transform="matrix(0.395299 -0.917115 0.895761 0.447807 790.803 161.889)" fill="white"/>
<g style="mix-blend-mode:overlay">
<ellipse cx="0.461038" cy="0.438298" rx="0.461038" ry="0.438298" transform="matrix(0.395299 -0.917115 0.895761 0.447807 796.027 178.691)" fill="white"/>
</g>
<g style="mix-blend-mode:overlay">
<ellipse cx="0.877267" cy="0.944686" rx="0.877267" ry="0.944686" transform="matrix(0.999618 0.0276454 -0.023838 0.999716 771.949 171.211)" fill="white"/>
</g>
<g style="mix-blend-mode:overlay">
<ellipse cx="0.43886" cy="0.472587" rx="0.43886" ry="0.472587" transform="matrix(0.999618 0.0276454 -0.023838 0.999716 790.885 143.719)" fill="white"/>
</g>
<g style="mix-blend-mode:overlay">
<ellipse cx="0.43886" cy="0.472587" rx="0.43886" ry="0.472587" transform="matrix(0.999618 0.0276454 -0.023838 0.999716 793.993 131.312)" fill="white"/>
</g>
<g style="mix-blend-mode:overlay">
<ellipse cx="0.43886" cy="0.472587" rx="0.43886" ry="0.472587" transform="matrix(0.999618 0.0276454 -0.023838 0.999716 755.944 134.802)" fill="white"/>
</g>
<ellipse cx="0.43886" cy="0.472587" rx="0.43886" ry="0.472587" transform="matrix(0.999618 0.0276454 -0.023838 0.999716 753.61 173.732)" fill="white"/>
<g style="mix-blend-mode:overlay">
<ellipse cx="0.877267" cy="0.944686" rx="0.877267" ry="0.944686" transform="matrix(0.999618 0.0276454 -0.023838 0.999716 753.52 147.986)" fill="white"/>
</g>
<g style="mix-blend-mode:overlay">
<ellipse cx="0.877267" cy="0.944686" rx="0.877267" ry="0.944686" transform="matrix(0.999618 0.0276454 -0.023838 0.999716 766.284 158.182)" fill="white"/>
</g>
<ellipse cx="0.877267" cy="0.944686" rx="0.877267" ry="0.944686" transform="matrix(0.999618 0.0276454 -0.023838 0.999716 788.308 148.569)" fill="white"/>
<ellipse cx="0.43886" cy="0.472587" rx="0.43886" ry="0.472587" transform="matrix(0.999618 0.0276454 -0.023838 0.999716 774.617 133.047)" fill="white"/>
<ellipse cx="0.43886" cy="0.472587" rx="0.43886" ry="0.472587" transform="matrix(0.999618 0.0276454 -0.023838 0.999716 791.056 151.295)" fill="white"/>
<g style="mix-blend-mode:overlay">
<ellipse cx="0.43886" cy="0.472587" rx="0.43886" ry="0.472587" transform="matrix(0.999618 0.0276454 -0.023838 0.999716 745.584 171.239)" fill="white"/>
</g>
<g style="mix-blend-mode:overlay">
<ellipse cx="0.43886" cy="0.472587" rx="0.43886" ry="0.472587" transform="matrix(0.999618 0.0276454 -0.023838 0.999716 765.87 146.056)" fill="white"/>
</g>
<ellipse cx="1.0147" cy="0.974483" rx="1.0147" ry="0.974483" transform="matrix(0.470188 -0.880833 0.851645 0.52727 772.482 148.889)" fill="white"/>
<g style="mix-blend-mode:overlay">
<ellipse cx="0.507612" cy="0.487493" rx="0.507612" ry="0.487493" transform="matrix(0.470188 -0.880833 0.851645 0.52727 786.074 139.043)" fill="white"/>
</g>
<ellipse cx="0.507612" cy="0.487493" rx="0.507612" ry="0.487493" transform="matrix(0.470188 -0.880833 0.851645 0.52727 789.209 169.795)" fill="white"/>
<g style="mix-blend-mode:overlay">
<ellipse cx="0.507612" cy="0.487493" rx="0.507612" ry="0.487493" transform="matrix(0.470188 -0.880833 0.851645 0.52727 747.188 133.425)" fill="white"/>
</g>
<g style="mix-blend-mode:overlay">
<ellipse cx="0.507612" cy="0.487493" rx="0.507612" ry="0.487493" transform="matrix(0.470188 -0.880833 0.851645 0.52727 770.78 131.805)" fill="white"/>
</g>
<g style="mix-blend-mode:overlay">
<ellipse cx="1.0147" cy="0.974483" rx="1.0147" ry="0.974483" transform="matrix(0.470188 -0.880833 0.851645 0.52727 749.845 169.464)" fill="white"/>
</g>
<ellipse cx="1.0147" cy="0.974483" rx="1.0147" ry="0.974483" transform="matrix(0.470188 -0.880833 0.851645 0.52727 775.643 148.976)" fill="white"/>
<g style="mix-blend-mode:overlay">
<ellipse cx="1.0147" cy="0.974483" rx="1.0147" ry="0.974483" transform="matrix(0.470188 -0.880833 0.851645 0.52727 779.039 153.992)" fill="white"/>
</g>
<g style="mix-blend-mode:overlay">
<ellipse cx="0.507612" cy="0.487493" rx="0.507612" ry="0.487493" transform="matrix(0.470188 -0.880833 0.851645 0.52727 761.331 130.03)" fill="white"/>
</g>
<g style="mix-blend-mode:overlay">
<ellipse cx="0.507612" cy="0.487493" rx="0.507612" ry="0.487493" transform="matrix(0.470188 -0.880833 0.851645 0.52727 796.695 135.929)" fill="white"/>
</g>
<ellipse cx="0.507612" cy="0.487493" rx="0.507612" ry="0.487493" transform="matrix(0.470188 -0.880833 0.851645 0.52727 761.816 168.659)" fill="white"/>
<ellipse cx="0.507612" cy="0.487493" rx="0.507612" ry="0.487493" transform="matrix(0.470188 -0.880833 0.851645 0.52727 775.643 148.976)" fill="white"/>
<g style="mix-blend-mode:overlay">
<ellipse cx="1.12239" cy="1.08274" rx="1.12239" ry="1.08274" transform="matrix(-0.458027 -0.890738 0.857374 -0.511339 797.559 129.139)" fill="white"/>
</g>
<g style="mix-blend-mode:overlay">
<ellipse cx="0.561484" cy="0.54165" rx="0.561484" ry="0.54165" transform="matrix(-0.458027 -0.890738 0.857374 -0.511339 772.616 157.979)" fill="white"/>
</g>
<g style="mix-blend-mode:overlay">
<ellipse cx="0.561484" cy="0.54165" rx="0.561484" ry="0.54165" transform="matrix(-0.458027 -0.890738 0.857374 -0.511339 750.737 132.008)" fill="white"/>
</g>
<g style="mix-blend-mode:overlay">
<ellipse cx="0.561484" cy="0.54165" rx="0.561484" ry="0.54165" transform="matrix(-0.458027 -0.890738 0.857374 -0.511339 793.65 160.453)" fill="white"/>
</g>
<g style="mix-blend-mode:overlay">
<ellipse cx="0.561484" cy="0.54165" rx="0.561484" ry="0.54165" transform="matrix(-0.458027 -0.890738 0.857374 -0.511339 781.381 144.213)" fill="white"/>
</g>
<g style="mix-blend-mode:overlay">
<ellipse cx="1.12239" cy="1.08274" rx="1.12239" ry="1.08274" transform="matrix(-0.458027 -0.890738 0.857374 -0.511339 753.709 169.57)" fill="white"/>
</g>
<ellipse cx="1.12239" cy="1.08274" rx="1.12239" ry="1.08274" transform="matrix(-0.458027 -0.890738 0.857374 -0.511339 785.777 166.293)" fill="white"/>
<g style="mix-blend-mode:overlay">
<ellipse cx="1.12239" cy="1.08274" rx="1.12239" ry="1.08274" transform="matrix(-0.458027 -0.890738 0.857374 -0.511339 788.398 174.316)" fill="white"/>
</g>
<g style="mix-blend-mode:overlay">
<ellipse cx="0.561484" cy="0.54165" rx="0.561484" ry="0.54165" transform="matrix(-0.458027 -0.890738 0.857374 -0.511339 774.067 156.126)" fill="white"/>
</g>
<g style="mix-blend-mode:overlay">
<ellipse cx="0.561484" cy="0.54165" rx="0.561484" ry="0.54165" transform="matrix(-0.458027 -0.890738 0.857374 -0.511339 791.309 125.937)" fill="white"/>
</g>
<ellipse cx="0.561484" cy="0.54165" rx="0.561484" ry="0.54165" transform="matrix(-0.458027 -0.890738 0.857374 -0.511339 770.752 162.47)" fill="white"/>
<g style="mix-blend-mode:overlay">
<ellipse cx="0.561484" cy="0.54165" rx="0.561484" ry="0.54165" transform="matrix(-0.458027 -0.890738 0.857374 -0.511339 745.647 168.59)" fill="white"/>
</g>
<g style="mix-blend-mode:overlay">
<ellipse cx="0.92505" cy="0.878478" rx="0.92505" ry="0.878478" transform="matrix(0.393825 -0.919186 0.89338 0.449301 817.25 197.959)" fill="white"/>
</g>
<ellipse cx="0.462764" cy="0.439466" rx="0.462764" ry="0.439466" transform="matrix(0.393825 -0.919186 0.89338 0.449301 835.635 190.669)" fill="white"/>
<g style="mix-blend-mode:overlay">
<ellipse cx="0.462764" cy="0.439466" rx="0.462764" ry="0.439466" transform="matrix(0.393825 -0.919186 0.89338 0.449301 810.073 161.276)" fill="white"/>
</g>
<ellipse cx="0.462764" cy="0.439466" rx="0.462764" ry="0.439466" transform="matrix(0.393825 -0.919186 0.89338 0.449301 887.985 164.249)" fill="white"/>
<g style="mix-blend-mode:overlay">
<ellipse cx="0.462764" cy="0.439466" rx="0.462764" ry="0.439466" transform="matrix(0.393825 -0.919186 0.89338 0.449301 866.13 172.934)" fill="white"/>
</g>
<g style="mix-blend-mode:overlay">
<ellipse cx="0.92505" cy="0.878478" rx="0.92505" ry="0.878478" transform="matrix(0.393825 -0.919186 0.89338 0.449301 844.381 170.263)" fill="white"/>
</g>
<ellipse cx="0.92505" cy="0.878478" rx="0.92505" ry="0.878478" transform="matrix(0.393825 -0.919186 0.89338 0.449301 826.001 163.09)" fill="white"/>
<g style="mix-blend-mode:overlay">
<ellipse cx="0.92505" cy="0.878478" rx="0.92505" ry="0.878478" transform="matrix(0.393825 -0.919186 0.89338 0.449301 871.314 149.701)" fill="white"/>
</g>
<g style="mix-blend-mode:overlay">
<ellipse cx="0.462764" cy="0.439466" rx="0.462764" ry="0.439466" transform="matrix(0.393825 -0.919186 0.89338 0.449301 854.472 200.141)" fill="white"/>
</g>
<ellipse cx="0.462764" cy="0.439466" rx="0.462764" ry="0.439466" transform="matrix(0.393825 -0.919186 0.89338 0.449301 860.078 178.157)" fill="white"/>
<ellipse cx="0.462764" cy="0.439466" rx="0.462764" ry="0.439466" transform="matrix(0.393825 -0.919186 0.89338 0.449301 848.562 156.191)" fill="white"/>
<g style="mix-blend-mode:overlay">
<ellipse cx="0.462764" cy="0.439466" rx="0.462764" ry="0.439466" transform="matrix(0.393825 -0.919186 0.89338 0.449301 825.769 169.171)" fill="white"/>
</g>
<g style="mix-blend-mode:overlay">
<ellipse cx="0.877271" cy="0.95036" rx="0.877271" ry="0.95036" transform="matrix(0.999613 0.0278115 -0.0236956 0.999719 870.218 203.235)" fill="white"/>
</g>
<g style="mix-blend-mode:overlay">
<ellipse cx="0.438862" cy="0.475426" rx="0.438862" ry="0.475426" transform="matrix(0.999613 0.0278115 -0.0236956 0.999719 883.892 218.83)" fill="white"/>
</g>
<g style="mix-blend-mode:overlay">
<ellipse cx="0.438862" cy="0.475426" rx="0.438862" ry="0.475426" transform="matrix(0.999613 0.0278115 -0.0236956 0.999719 898.823 181.213)" fill="white"/>
</g>
<g style="mix-blend-mode:overlay">
<ellipse cx="0.438862" cy="0.475426" rx="0.438862" ry="0.475426" transform="matrix(0.999613 0.0278115 -0.0236956 0.999719 933.178 212.593)" fill="white"/>
</g>
<g style="mix-blend-mode:overlay">
<ellipse cx="0.877271" cy="0.95036" rx="0.877271" ry="0.95036" transform="matrix(0.999613 0.0278115 -0.0236956 0.999719 904.935 219.414)" fill="white"/>
</g>
<g style="mix-blend-mode:overlay">
<ellipse cx="0.877271" cy="0.95036" rx="0.877271" ry="0.95036" transform="matrix(0.999613 0.0278115 -0.0236956 0.999719 926.702 189.595)" fill="white"/>
</g>
<g style="mix-blend-mode:overlay">
<ellipse cx="0.438862" cy="0.475426" rx="0.438862" ry="0.475426" transform="matrix(0.999613 0.0278115 -0.0236956 0.999719 919.687 189.4)" fill="white"/>
</g>
<g style="mix-blend-mode:overlay">
<ellipse cx="0.438862" cy="0.475426" rx="0.438862" ry="0.475426" transform="matrix(0.999613 0.0278115 -0.0236956 0.999719 898.372 200.216)" fill="white"/>
</g>
<g style="mix-blend-mode:overlay">
<ellipse cx="0.926366" cy="0.87709" rx="0.926366" ry="0.87709" transform="matrix(0.393265 -0.91788 0.894794 0.450012 925.378 198.103)" fill="white"/>
</g>
<ellipse cx="0.463422" cy="0.438772" rx="0.463422" ry="0.438772" transform="matrix(0.393265 -0.91788 0.894794 0.450012 887.413 153.628)" fill="white"/>
<g style="mix-blend-mode:overlay">
<ellipse cx="0.463422" cy="0.438772" rx="0.463422" ry="0.438772" transform="matrix(0.393265 -0.91788 0.894794 0.450012 883.826 201.136)" fill="white"/>
</g>
<ellipse cx="0.463422" cy="0.438772" rx="0.463422" ry="0.438772" transform="matrix(0.393265 -0.91788 0.894794 0.450012 883.844 200.375)" fill="white"/>
<g style="mix-blend-mode:overlay">
<ellipse cx="0.463422" cy="0.438772" rx="0.463422" ry="0.438772" transform="matrix(0.393265 -0.91788 0.894794 0.450012 925.903 176.027)" fill="white"/>
</g>
<g style="mix-blend-mode:overlay">
<ellipse cx="0.926366" cy="0.87709" rx="0.926366" ry="0.87709" transform="matrix(0.393265 -0.91788 0.894794 0.450012 920.498 166.736)" fill="white"/>
</g>
<ellipse cx="0.926366" cy="0.87709" rx="0.926366" ry="0.87709" transform="matrix(0.393265 -0.91788 0.894794 0.450012 886.132 192.821)" fill="white"/>
<g style="mix-blend-mode:overlay">
<ellipse cx="0.926366" cy="0.87709" rx="0.926366" ry="0.87709" transform="matrix(0.393265 -0.91788 0.894794 0.450012 926 186.694)" fill="white"/>
</g>
<g style="mix-blend-mode:overlay">
<ellipse cx="0.463422" cy="0.438772" rx="0.463422" ry="0.438772" transform="matrix(0.393265 -0.91788 0.894794 0.450012 922.902 198.795)" fill="white"/>
</g>
<ellipse cx="0.463422" cy="0.438772" rx="0.463422" ry="0.438772" transform="matrix(0.393265 -0.91788 0.894794 0.450012 897.456 174.855)" fill="white"/>
<ellipse cx="0.463422" cy="0.438772" rx="0.463422" ry="0.438772" transform="matrix(0.393265 -0.91788 0.894794 0.450012 922.803 188.128)" fill="white"/>
<g style="mix-blend-mode:overlay">
<ellipse cx="0.463422" cy="0.438772" rx="0.463422" ry="0.438772" transform="matrix(0.393265 -0.91788 0.894794 0.450012 928.027 205.032)" fill="white"/>
</g>
<g style="mix-blend-mode:overlay">
<ellipse cx="0.877271" cy="0.95036" rx="0.877271" ry="0.95036" transform="matrix(0.999613 0.0278115 -0.0236956 0.999719 903.95 197.506)" fill="white"/>
</g>
<g style="mix-blend-mode:overlay">
<ellipse cx="0.438862" cy="0.475426" rx="0.438862" ry="0.475426" transform="matrix(0.999613 0.0278115 -0.0236956 0.999719 922.885 169.849)" fill="white"/>
</g>
<g style="mix-blend-mode:overlay">
<ellipse cx="0.438862" cy="0.475426" rx="0.438862" ry="0.475426" transform="matrix(0.999613 0.0278115 -0.0236956 0.999719 925.993 157.368)" fill="white"/>
</g>
<g style="mix-blend-mode:overlay">
<ellipse cx="0.438862" cy="0.475426" rx="0.438862" ry="0.475426" transform="matrix(0.999613 0.0278115 -0.0236956 0.999719 887.944 160.879)" fill="white"/>
</g>
<ellipse cx="0.438862" cy="0.475426" rx="0.438862" ry="0.475426" transform="matrix(0.999613 0.0278115 -0.0236956 0.999719 885.61 200.043)" fill="white"/>
<g style="mix-blend-mode:overlay">
<ellipse cx="0.877271" cy="0.95036" rx="0.877271" ry="0.95036" transform="matrix(0.999613 0.0278115 -0.0236956 0.999719 885.52 174.142)" fill="white"/>
</g>
<g style="mix-blend-mode:overlay">
<ellipse cx="0.877271" cy="0.95036" rx="0.877271" ry="0.95036" transform="matrix(0.999613 0.0278115 -0.0236956 0.999719 898.284 184.399)" fill="white"/>
</g>
<ellipse cx="0.877271" cy="0.95036" rx="0.877271" ry="0.95036" transform="matrix(0.999613 0.0278115 -0.0236956 0.999719 920.308 174.729)" fill="white"/>
<ellipse cx="0.438862" cy="0.475426" rx="0.438862" ry="0.475426" transform="matrix(0.999613 0.0278115 -0.0236956 0.999719 906.617 159.114)" fill="white"/>
<ellipse cx="0.438862" cy="0.475426" rx="0.438862" ry="0.475426" transform="matrix(0.999613 0.0278115 -0.0236956 0.999719 923.056 177.471)" fill="white"/>
<g style="mix-blend-mode:overlay">
<ellipse cx="0.438862" cy="0.475426" rx="0.438862" ry="0.475426" transform="matrix(0.999613 0.0278115 -0.0236956 0.999719 877.584 197.534)" fill="white"/>
</g>
<g style="mix-blend-mode:overlay">
<ellipse cx="0.438862" cy="0.475426" rx="0.438862" ry="0.475426" transform="matrix(0.999613 0.0278115 -0.0236956 0.999719 897.87 172.2)" fill="white"/>
</g>
<ellipse cx="1.01957" cy="0.975974" rx="1.01957" ry="0.975974" transform="matrix(0.467942 -0.881895 0.850345 0.529629 904.482 175.05)" fill="white"/>
<g style="mix-blend-mode:overlay">
<ellipse cx="0.510049" cy="0.488239" rx="0.510049" ry="0.488239" transform="matrix(0.467942 -0.881895 0.850345 0.529629 918.074 165.145)" fill="white"/>
</g>
<ellipse cx="0.510049" cy="0.488239" rx="0.510049" ry="0.488239" transform="matrix(0.467942 -0.881895 0.850345 0.529629 921.209 196.082)" fill="white"/>
<g style="mix-blend-mode:overlay">
<ellipse cx="0.510049" cy="0.488239" rx="0.510049" ry="0.488239" transform="matrix(0.467942 -0.881895 0.850345 0.529629 879.188 159.493)" fill="white"/>
</g>
<g style="mix-blend-mode:overlay">
<ellipse cx="0.510049" cy="0.488239" rx="0.510049" ry="0.488239" transform="matrix(0.467942 -0.881895 0.850345 0.529629 902.78 157.864)" fill="white"/>
</g>
<g style="mix-blend-mode:overlay">
<ellipse cx="1.01957" cy="0.975974" rx="1.01957" ry="0.975974" transform="matrix(0.467942 -0.881895 0.850345 0.529629 881.845 195.749)" fill="white"/>
</g>
<ellipse cx="1.01957" cy="0.975974" rx="1.01957" ry="0.975974" transform="matrix(0.467942 -0.881895 0.850345 0.529629 907.643 175.138)" fill="white"/>
<g style="mix-blend-mode:overlay">
<ellipse cx="1.01957" cy="0.975974" rx="1.01957" ry="0.975974" transform="matrix(0.467942 -0.881895 0.850345 0.529629 911.039 180.184)" fill="white"/>
</g>
<g style="mix-blend-mode:overlay">
<ellipse cx="0.510049" cy="0.488239" rx="0.510049" ry="0.488239" transform="matrix(0.467942 -0.881895 0.850345 0.529629 893.331 156.078)" fill="white"/>
</g>
<g style="mix-blend-mode:overlay">
<ellipse cx="0.510049" cy="0.488239" rx="0.510049" ry="0.488239" transform="matrix(0.467942 -0.881895 0.850345 0.529629 928.695 162.013)" fill="white"/>
</g>
<ellipse cx="0.510049" cy="0.488239" rx="0.510049" ry="0.488239" transform="matrix(0.467942 -0.881895 0.850345 0.529629 893.816 194.939)" fill="white"/>
<ellipse cx="0.510049" cy="0.488239" rx="0.510049" ry="0.488239" transform="matrix(0.467942 -0.881895 0.850345 0.529629 907.643 175.138)" fill="white"/>
<g style="mix-blend-mode:overlay">
<ellipse cx="1.12759" cy="1.08461" rx="1.12759" ry="1.08461" transform="matrix(-0.455915 -0.89196 0.855897 -0.513526 929.559 155.182)" fill="white"/>
</g>
<g style="mix-blend-mode:overlay">
<ellipse cx="0.564084" cy="0.542584" rx="0.564084" ry="0.542584" transform="matrix(-0.455915 -0.89196 0.855897 -0.513526 904.616 184.195)" fill="white"/>
</g>
<g style="mix-blend-mode:overlay">
<ellipse cx="0.564084" cy="0.542584" rx="0.564084" ry="0.542584" transform="matrix(-0.455915 -0.89196 0.855897 -0.513526 882.737 158.068)" fill="white"/>
</g>
<g style="mix-blend-mode:overlay">
<ellipse cx="0.564084" cy="0.542584" rx="0.564084" ry="0.542584" transform="matrix(-0.455915 -0.89196 0.855897 -0.513526 925.65 186.684)" fill="white"/>
</g>
<g style="mix-blend-mode:overlay">
<ellipse cx="0.564084" cy="0.542584" rx="0.564084" ry="0.542584" transform="matrix(-0.455915 -0.89196 0.855897 -0.513526 913.381 170.347)" fill="white"/>
</g>
<g style="mix-blend-mode:overlay">
<ellipse cx="1.12759" cy="1.08461" rx="1.12759" ry="1.08461" transform="matrix(-0.455915 -0.89196 0.855897 -0.513526 885.709 195.856)" fill="white"/>
</g>
<ellipse cx="1.12759" cy="1.08461" rx="1.12759" ry="1.08461" transform="matrix(-0.455915 -0.89196 0.855897 -0.513526 917.777 192.559)" fill="white"/>
<g style="mix-blend-mode:overlay">
<ellipse cx="1.12759" cy="1.08461" rx="1.12759" ry="1.08461" transform="matrix(-0.455915 -0.89196 0.855897 -0.513526 920.398 200.63)" fill="white"/>
</g>
<g style="mix-blend-mode:overlay">
<ellipse cx="0.564084" cy="0.542584" rx="0.564084" ry="0.542584" transform="matrix(-0.455915 -0.89196 0.855897 -0.513526 906.067 182.331)" fill="white"/>
</g>
<g style="mix-blend-mode:overlay">
<ellipse cx="0.564084" cy="0.542584" rx="0.564084" ry="0.542584" transform="matrix(-0.455915 -0.89196 0.855897 -0.513526 923.309 151.961)" fill="white"/>
</g>
<ellipse cx="0.564084" cy="0.542584" rx="0.564084" ry="0.542584" transform="matrix(-0.455915 -0.89196 0.855897 -0.513526 902.752 188.713)" fill="white"/>
<g style="mix-blend-mode:overlay">
<ellipse cx="0.564084" cy="0.542584" rx="0.564084" ry="0.542584" transform="matrix(-0.455915 -0.89196 0.855897 -0.513526 877.647 194.87)" fill="white"/>
</g>
<g style="mix-blend-mode:plus-lighter" filter="url(#filter0_di_441_5676)">
<path d="M831.538 152.179C827.988 154.399 823.948 154.968 818.816 152.179H751.005C751.005 152.179 765.903 150.47 784.397 150.47C802.89 150.47 808.985 146.838 818.816 152.179H831.538C845.402 143.512 851.804 109.666 886.626 152.179H930.968C936.913 140.759 942.734 128.356 953.409 128.247C963.413 128.145 974.471 150.47 986.286 150.47C998.102 150.47 1022.25 152.179 1022.25 152.179H930.968C922.055 169.301 912.864 184.213 886.626 152.179H831.538Z" fill="url(#paint1_radial_441_5676)" shape-rendering="crispEdges"/>
<path d="M831.538 152.179C827.988 154.399 823.948 154.968 818.816 152.179H751.005C751.005 152.179 765.903 150.47 784.397 150.47C802.89 150.47 808.985 146.838 818.816 152.179H831.538C845.402 143.512 851.804 109.666 886.626 152.179H930.968C936.913 140.759 942.734 128.356 953.409 128.247C963.413 128.145 974.471 150.47 986.286 150.47C998.102 150.47 1022.25 152.179 1022.25 152.179H930.968C922.055 169.301 912.864 184.213 886.626 152.179H831.538Z" fill="url(#paint2_radial_441_5676)" shape-rendering="crispEdges"/>
</g>
<g style="mix-blend-mode:plus-lighter" filter="url(#filter1_dif_441_5676)">
<path d="M818.524 152.211C822.399 142.435 826.148 144.987 830.07 152.211L874.372 152.211C906.924 29.1179 919.453 164.42 985.273 148.574C996.686 145.826 1021.08 152.211 1021.08 152.211L874.372 152.211C853.662 230.524 841.17 172.657 830.07 152.211L818.524 152.211C803.679 189.657 799.914 152.211 781.5 152.211H818.524Z" fill="url(#paint3_radial_441_5676)" shape-rendering="crispEdges"/>
<path d="M818.524 152.211C822.399 142.435 826.148 144.987 830.07 152.211L874.372 152.211C906.924 29.1179 919.453 164.42 985.273 148.574C996.686 145.826 1021.08 152.211 1021.08 152.211L874.372 152.211C853.662 230.524 841.17 172.657 830.07 152.211L818.524 152.211C803.679 189.657 799.914 152.211 781.5 152.211H818.524Z" fill="url(#paint4_radial_441_5676)" shape-rendering="crispEdges"/>
</g>
<g style="mix-blend-mode:plus-lighter" filter="url(#filter2_di_441_5676)">
<path d="M886.626 152.179C851.239 175.137 836.509 169.411 818.816 152.179H751.005C751.005 152.179 765.903 150.47 784.397 150.47C802.89 150.47 801.122 134.948 818.816 152.179H886.626C924.423 127.659 945.38 150.47 986.286 150.47C998.102 150.47 1022.25 152.179 1022.25 152.179H886.626Z" fill="url(#paint5_radial_441_5676)" shape-rendering="crispEdges"/>
<path d="M886.626 152.179C851.239 175.137 836.509 169.411 818.816 152.179H751.005C751.005 152.179 765.903 150.47 784.397 150.47C802.89 150.47 801.122 134.948 818.816 152.179H886.626C924.423 127.659 945.38 150.47 986.286 150.47C998.102 150.47 1022.25 152.179 1022.25 152.179H886.626Z" fill="url(#paint6_radial_441_5676)" shape-rendering="crispEdges"/>
</g>
<g style="mix-blend-mode:plus-lighter" filter="url(#filter3_di_441_5676)">
<path d="M862.793 152.48C847.864 172.825 832.098 208.06 819.068 152.48H770.568C789.13 152.48 798.514 64.8066 819.068 152.48H862.793C871.414 140.732 879.755 133.949 887.131 152.48H995.526C999.864 151.863 1004.51 151.814 1009.51 152.48H1023.26C1023.26 152.48 1076.58 161.425 1009.51 152.48C1009.51 152.48 1009.51 152.48 1009.51 152.48H995.526C941.648 160.14 935.082 255.274 887.131 152.48H862.793Z" fill="url(#paint7_radial_441_5676)" shape-rendering="crispEdges"/>
<path d="M862.793 152.48C847.864 172.825 832.098 208.06 819.068 152.48H770.568C789.13 152.48 798.514 64.8066 819.068 152.48H862.793C871.414 140.732 879.755 133.949 887.131 152.48H995.526C999.864 151.863 1004.51 151.814 1009.51 152.48H1023.26C1023.26 152.48 1076.58 161.425 1009.51 152.48C1009.51 152.48 1009.51 152.48 1009.51 152.48H995.526C941.648 160.14 935.082 255.274 887.131 152.48H862.793Z" fill="url(#paint8_radial_441_5676)" shape-rendering="crispEdges"/>
</g>
<g style="mix-blend-mode:plus-lighter" filter="url(#filter4_di_441_5676)">
<path d="M1026.65 151.024C1026.65 152.503 933.374 153.703 887.434 153.703C841.494 153.703 748.221 152.503 748.221 151.024C748.221 149.544 809.475 130.929 887.434 148.344C965.393 165.759 1026.65 149.544 1026.65 151.024Z" fill="url(#paint9_radial_441_5676)" shape-rendering="crispEdges"/>
<path d="M1026.65 151.024C1026.65 152.503 933.374 153.703 887.434 153.703C841.494 153.703 748.221 152.503 748.221 151.024C748.221 149.544 809.475 130.929 887.434 148.344C965.393 165.759 1026.65 149.544 1026.65 151.024Z" fill="url(#paint10_radial_441_5676)" fill-opacity="0.5" shape-rendering="crispEdges"/>
</g>
</g>
<defs>
<filter id="filter0_di_441_5676" x="742.005" y="120.247" width="289.241" height="60.7724" filterUnits="userSpaceOnUse" color-interpolation-filters="sRGB">
<feFlood flood-opacity="0" result="BackgroundImageFix"/>
<feColorMatrix in="SourceAlpha" type="matrix" values="0 0 0 0 0 0 0 0 0 0 0 0 0 0 0 0 0 0 127 0" result="hardAlpha"/>
<feOffset dy="1"/>
<feGaussianBlur stdDeviation="4.5"/>
<feComposite in2="hardAlpha" operator="out"/>
<feColorMatrix type="matrix" values="0 0 0 0 0.426944 0 0 0 0 0.966667 0 0 0 0 0.966667 0 0 0 0.8 0"/>
<feBlend mode="normal" in2="BackgroundImageFix" result="effect1_dropShadow_441_5676"/>
<feBlend mode="normal" in="SourceGraphic" in2="effect1_dropShadow_441_5676" result="shape"/>
<feColorMatrix in="SourceAlpha" type="matrix" values="0 0 0 0 0 0 0 0 0 0 0 0 0 0 0 0 0 0 127 0" result="hardAlpha"/>
<feOffset/>
<feGaussianBlur stdDeviation="1"/>
<feComposite in2="hardAlpha" operator="arithmetic" k2="-1" k3="1"/>
<feColorMatrix type="matrix" values="0 0 0 0 0.900833 0 0 0 0 0.854167 0 0 0 0 1 0 0 0 1 0"/>
<feBlend mode="normal" in2="shape" result="effect2_innerShadow_441_5676"/>
</filter>
<filter id="filter1_dif_441_5676" x="772.5" y="92" width="257.578" height="110.021" filterUnits="userSpaceOnUse" color-interpolation-filters="sRGB">
<feFlood flood-opacity="0" result="BackgroundImageFix"/>
<feColorMatrix in="SourceAlpha" type="matrix" values="0 0 0 0 0 0 0 0 0 0 0 0 0 0 0 0 0 0 127 0" result="hardAlpha"/>
<feOffset dy="1"/>
<feGaussianBlur stdDeviation="4.5"/>
<feComposite in2="hardAlpha" operator="out"/>
<feColorMatrix type="matrix" values="0 0 0 0 0.426944 0 0 0 0 0.578067 0 0 0 0 0.966667 0 0 0 0.8 0"/>
<feBlend mode="normal" in2="BackgroundImageFix" result="effect1_dropShadow_441_5676"/>
<feBlend mode="normal" in="SourceGraphic" in2="effect1_dropShadow_441_5676" result="shape"/>
<feColorMatrix in="SourceAlpha" type="matrix" values="0 0 0 0 0 0 0 0 0 0 0 0 0 0 0 0 0 0 127 0" result="hardAlpha"/>
<feOffset/>
<feGaussianBlur stdDeviation="1"/>
<feComposite in2="hardAlpha" operator="arithmetic" k2="-1" k3="1"/>
<feColorMatrix type="matrix" values="0 0 0 0 0.416083 0 0 0 0 0.404167 0 0 0 0 1 0 0 0 1 0"/>
<feBlend mode="normal" in2="shape" result="effect2_innerShadow_441_5676"/>
<feGaussianBlur stdDeviation="0.25" result="effect3_foregroundBlur_441_5676"/>
</filter>
<filter id="filter2_di_441_5676" x="742.005" y="132.82" width="289.241" height="44.5062" filterUnits="userSpaceOnUse" color-interpolation-filters="sRGB">
<feFlood flood-opacity="0" result="BackgroundImageFix"/>
<feColorMatrix in="SourceAlpha" type="matrix" values="0 0 0 0 0 0 0 0 0 0 0 0 0 0 0 0 0 0 127 0" result="hardAlpha"/>
<feOffset dy="1"/>
<feGaussianBlur stdDeviation="4.5"/>
<feComposite in2="hardAlpha" operator="out"/>
<feColorMatrix type="matrix" values="0 0 0 0 0.664422 0 0 0 0 0.426944 0 0 0 0 0.966667 0 0 0 0.8 0"/>
<feBlend mode="normal" in2="BackgroundImageFix" result="effect1_dropShadow_441_5676"/>
<feBlend mode="normal" in="SourceGraphic" in2="effect1_dropShadow_441_5676" result="shape"/>
<feColorMatrix in="SourceAlpha" type="matrix" values="0 0 0 0 0 0 0 0 0 0 0 0 0 0 0 0 0 0 127 0" result="hardAlpha"/>
<feOffset/>
<feGaussianBlur stdDeviation="1"/>
<feComposite in2="hardAlpha" operator="arithmetic" k2="-1" k3="1"/>
<feColorMatrix type="matrix" values="0 0 0 0 0.900833 0 0 0 0 0.854167 0 0 0 0 1 0 0 0 1 0"/>
<feBlend mode="normal" in2="shape" result="effect2_innerShadow_441_5676"/>
</filter>
<filter id="filter3_di_441_5676" x="761.568" y="105.514" width="290.785" height="104.403" filterUnits="userSpaceOnUse" color-interpolation-filters="sRGB">
<feFlood flood-opacity="0" result="BackgroundImageFix"/>
<feColorMatrix in="SourceAlpha" type="matrix" values="0 0 0 0 0 0 0 0 0 0 0 0 0 0 0 0 0 0 127 0" result="hardAlpha"/>
<feOffset dy="1"/>
<feGaussianBlur stdDeviation="4.5"/>
<feComposite in2="hardAlpha" operator="out"/>
<feColorMatrix type="matrix" values="0 0 0 0 0.664422 0 0 0 0 0.426944 0 0 0 0 0.966667 0 0 0 0.8 0"/>
<feBlend mode="normal" in2="BackgroundImageFix" result="effect1_dropShadow_441_5676"/>
<feBlend mode="normal" in="SourceGraphic" in2="effect1_dropShadow_441_5676" result="shape"/>
<feColorMatrix in="SourceAlpha" type="matrix" values="0 0 0 0 0 0 0 0 0 0 0 0 0 0 0 0 0 0 127 0" result="hardAlpha"/>
<feOffset/>
<feGaussianBlur stdDeviation="1"/>
<feComposite in2="hardAlpha" operator="arithmetic" k2="-1" k3="1"/>
<feColorMatrix type="matrix" values="0 0 0 0 0.900833 0 0 0 0 0.854167 0 0 0 0 1 0 0 0 1 0"/>
<feBlend mode="normal" in2="shape" result="effect2_innerShadow_441_5676"/>
</filter>
<filter id="filter4_di_441_5676" x="739.221" y="132.951" width="296.426" height="33.5223" filterUnits="userSpaceOnUse" color-interpolation-filters="sRGB">
<feFlood flood-opacity="0" result="BackgroundImageFix"/>
<feColorMatrix in="SourceAlpha" type="matrix" values="0 0 0 0 0 0 0 0 0 0 0 0 0 0 0 0 0 0 127 0" result="hardAlpha"/>
<feOffset dy="1"/>
<feGaussianBlur stdDeviation="4.5"/>
<feComposite in2="hardAlpha" operator="out"/>
<feColorMatrix type="matrix" values="0 0 0 0 0.91225 0 0 0 0 0.6625 0 0 0 0 1 0 0 0 0.8 0"/>
<feBlend mode="normal" in2="BackgroundImageFix" result="effect1_dropShadow_441_5676"/>
<feBlend mode="normal" in="SourceGraphic" in2="effect1_dropShadow_441_5676" result="shape"/>
<feColorMatrix in="SourceAlpha" type="matrix" values="0 0 0 0 0 0 0 0 0 0 0 0 0 0 0 0 0 0 127 0" result="hardAlpha"/>
<feOffset/>
<feGaussianBlur stdDeviation="1"/>
<feComposite in2="hardAlpha" operator="arithmetic" k2="-1" k3="1"/>
<feColorMatrix type="matrix" values="0 0 0 0 0.900833 0 0 0 0 0.854167 0 0 0 0 1 0 0 0 1 0"/>
<feBlend mode="normal" in2="shape" result="effect2_innerShadow_441_5676"/>
</filter>
<linearGradient id="paint0_linear_441_5676" x1="10.392" y1="12.3721" x2="966.301" y2="319.141" gradientUnits="userSpaceOnUse">
<stop offset="0.497578" stop-color="#0B030E"/>
<stop offset="1" stop-color="#5D2EB5"/>
</linearGradient>
<radialGradient id="paint1_radial_441_5676" cx="0" cy="0" r="1" gradientUnits="userSpaceOnUse" gradientTransform="translate(886.626 155.611) rotate(90) scale(24.1789 142.118)">
<stop stop-color="#2542DD" stop-opacity="0"/>
<stop offset="1" stop-color="#361D80"/>
</radialGradient>
<radialGradient id="paint2_radial_441_5676" cx="0" cy="0" r="1" gradientUnits="userSpaceOnUse" gradientTransform="translate(751.005 160.061) scale(154.114 1993.91)">
<stop offset="0.297404" stop-color="#D1C1FF" stop-opacity="0.52"/>
<stop offset="1" stop-color="#D1C1FF" stop-opacity="0"/>
</radialGradient>
<radialGradient id="paint3_radial_441_5676" cx="0" cy="0" r="1" gradientUnits="userSpaceOnUse" gradientTransform="translate(886.042 140.138) rotate(90) scale(55.7212 141.507)">
<stop stop-color="#2542DD" stop-opacity="0"/>
<stop offset="1" stop-color="#11195F"/>
</radialGradient>
<radialGradient id="paint4_radial_441_5676" cx="0" cy="0" r="1" gradientUnits="userSpaceOnUse" gradientTransform="translate(751.005 150.393) scale(153.451 4595.03)">
<stop offset="0.297404" stop-color="#D1C1FF" stop-opacity="0.52"/>
<stop offset="1" stop-color="#D1C1FF" stop-opacity="0"/>
</radialGradient>
<radialGradient id="paint5_radial_441_5676" cx="0" cy="0" r="1" gradientUnits="userSpaceOnUse" gradientTransform="translate(886.626 156.342) rotate(90) scale(11.9603 142.118)">
<stop stop-color="#2542DD" stop-opacity="0"/>
<stop offset="1" stop-color="#361D80"/>
</radialGradient>
<radialGradient id="paint6_radial_441_5676" cx="0" cy="0" r="1" gradientUnits="userSpaceOnUse" gradientTransform="translate(751.005 158.543) scale(154.114 986.302)">
<stop offset="0.297404" stop-color="#D1C1FF" stop-opacity="0.52"/>
<stop offset="1" stop-color="#D1C1FF" stop-opacity="0"/>
</radialGradient>
<radialGradient id="paint7_radial_441_5676" cx="0" cy="0" r="1" gradientUnits="userSpaceOnUse" gradientTransform="translate(887.131 159.676) rotate(90) scale(20.6735 142.647)">
<stop stop-color="#2542DD" stop-opacity="0"/>
<stop offset="1" stop-color="#361D80"/>
</radialGradient>
<radialGradient id="paint8_radial_441_5676" cx="0" cy="0" r="1" gradientUnits="userSpaceOnUse" gradientTransform="translate(751.005 163.481) scale(154.688 1704.84)">
<stop offset="0.297404" stop-color="#D1C1FF" stop-opacity="0.52"/>
<stop offset="1" stop-color="#D1C1FF" stop-opacity="0"/>
</radialGradient>
<radialGradient id="paint9_radial_441_5676" cx="0" cy="0" r="1" gradientUnits="userSpaceOnUse" gradientTransform="translate(877.864 150.982) rotate(90) scale(1.18134 135.855)">
<stop stop-color="#2542DD" stop-opacity="0"/>
<stop offset="1" stop-color="#361D80"/>
</radialGradient>
<radialGradient id="paint10_radial_441_5676" cx="0" cy="0" r="1" gradientTransform="matrix(147.322 1.0773e-06 -0.000100526 97.4193 748.221 151.199)" gradientUnits="userSpaceOnUse">
<stop offset="0.297404" stop-color="#D1C1FF" stop-opacity="0.52"/>
<stop offset="1" stop-color="#D1C1FF" stop-opacity="0"/>
</radialGradient>
<clipPath id="clip0_441_5676">
<rect width="1034" height="228" fill="white"/>
</clipPath>
</defs>
</svg>
