<svg width="52" height="52" viewBox="0 0 52 52" fill="none" xmlns="http://www.w3.org/2000/svg">
<path d="M9.14062 9.47081L15.7483 16.0785C17.0692 14.709 18.651 13.618 20.4004 12.8697C22.1497 12.1214 24.0312 11.731 25.9339 11.7215C27.8366 11.712 29.7218 12.0837 31.4786 12.8146C33.2353 13.5454 34.8279 14.6207 36.1623 15.9769L42.7639 9.3662C40.5617 7.14444 37.9397 5.38274 35.0504 4.18358C32.1612 2.98443 29.0623 2.37176 25.9341 2.38121C22.8058 2.39066 19.7107 3.02205 16.8287 4.23864C13.9467 5.45523 11.3354 7.23273 9.14672 9.46777L9.14062 9.47081Z" fill="#F0432C"/>
<path d="M9.22701 42.6319L15.8286 36.0303C14.508 34.6997 13.463 33.1216 12.7532 31.3864C12.0435 29.6513 11.683 27.7932 11.6924 25.9185C11.7019 24.0438 12.081 22.1894 12.8082 20.4615C13.5354 18.7336 14.5963 17.1661 15.9301 15.8488L9.3245 9.24219C7.12339 11.4272 5.37457 14.0246 4.17807 16.886C2.98157 19.7474 2.36086 22.8166 2.35143 25.918C2.34199 29.0195 2.94403 32.0924 4.1231 34.961C5.30217 37.8296 7.03516 40.4376 9.22294 42.6359L9.22701 42.6319Z" fill="#FFBF00"/>
<path d="M30.6698 30.6555V30.753H30.7673L30.6698 30.6555Z" fill="#24AA49"/>
<path d="M25.9492 49.5837C29.0548 49.5877 32.1305 48.9768 34.9988 47.7863C37.8671 46.5957 40.4714 44.849 42.6613 42.647L36.0547 36.0383C34.7304 37.3704 33.1559 38.4276 31.4216 39.1489C29.6873 39.8703 27.8275 40.2417 25.9492 40.2417C24.0709 40.2417 22.2111 39.8703 20.4768 39.1489C18.7425 38.4276 17.168 37.3704 15.8438 36.0383L9.24219 42.6399C11.4309 44.8426 14.0341 46.5902 16.9015 47.782C19.769 48.9738 22.844 49.5861 25.9492 49.5837Z" fill="#24AA49"/>
<path d="M49.1928 21.3616L30.7673 21.387V30.7531H39.4855C38.7638 32.7789 37.5942 34.6158 36.0638 36.1267L42.6705 42.7344C45.4366 39.9866 47.4798 36.5969 48.6179 32.8677C49.7559 29.1385 49.9534 25.1857 49.1928 21.3616Z" fill="#3384FC"/>
</svg>
