<svg width="52" height="52" viewBox="0 0 52 52" fill="none" xmlns="http://www.w3.org/2000/svg">
<path d="M39 34.8563V40.625C38.9975 41.4862 38.6542 42.3114 38.0453 42.9203C37.4364 43.5292 36.6112 43.8725 35.75 43.875H14.625V34.125H29.25V26L39 34.8563Z" fill="#00AC47"/>
<path d="M39 17.875V34.8563L29.25 26V17.875H39Z" fill="#31A950"/>
<path d="M14.625 8.125V17.875H4.875L14.625 8.125Z" fill="#EA4435"/>
<path d="M14.625 17.875H4.875V35.75H14.625V17.875Z" fill="#4285F4"/>
<path d="M39 11.375V17.875H38.1875L29.25 26V17.875H14.625V8.125H35.75C36.6112 8.12753 37.4364 8.47075 38.0453 9.0797C38.6542 9.68864 38.9975 10.5138 39 11.375Z" fill="#FFBA00"/>
<path d="M14.625 34.125V43.875H8.125C7.26382 43.8725 6.43864 43.5292 5.8297 42.9203C5.22075 42.3114 4.87753 41.4862 4.875 40.625V34.125H14.625Z" fill="#0066DA"/>
<path d="M47.125 13.4225V38.5775C47.125 38.8918 47.0338 39.1994 46.8624 39.4629C46.691 39.7263 46.4468 39.9344 46.1594 40.0617C45.872 40.189 45.5538 40.2302 45.2435 40.1802C44.9332 40.1302 44.6441 39.9911 44.4113 39.78L39 34.8562L29.25 26L38.1875 17.875L39 17.1437L44.4113 12.22C44.6441 12.0088 44.9332 11.8698 45.2435 11.8198C45.5538 11.7697 45.872 11.8109 46.1594 11.9382C46.4468 12.0656 46.691 12.2736 46.8624 12.5371C47.0338 12.8006 47.125 13.1082 47.125 13.4225Z" fill="#00AC47"/>
<path d="M39 17.1438V34.8563L29.25 26L38.1875 17.875L39 17.1438Z" fill="#188038"/>
</svg>
