<svg width="20" height="20" viewBox="0 0 20 20" fill="none" xmlns="http://www.w3.org/2000/svg">
<path d="M7.49161 17.9167C6.10828 17.9167 4.71661 17.3917 3.65828 16.3333C1.54994 14.2167 1.54994 10.7833 3.65828 8.675C3.89994 8.43333 4.29994 8.43333 4.54161 8.675C4.78328 8.91666 4.78328 9.31666 4.54161 9.55833C2.91661 11.1833 2.91661 13.825 4.54161 15.45C6.16661 17.075 8.80828 17.075 10.4333 15.45C11.2166 14.6667 11.6499 13.6167 11.6499 12.5C11.6499 11.3917 11.2166 10.3417 10.4333 9.55C10.1916 9.30833 10.1916 8.90833 10.4333 8.66666C10.6749 8.425 11.0749 8.425 11.3166 8.66666C12.3416 9.69166 12.8999 11.05 12.8999 12.5C12.8999 13.95 12.3333 15.3083 11.3166 16.3333C10.2666 17.3917 8.88328 17.9167 7.49161 17.9167Z" fill="#646566"/>
<path d="M15.8916 11.8C15.7333 11.8 15.5749 11.7416 15.4499 11.6166C15.2083 11.375 15.2083 10.975 15.4499 10.7333C17.1583 9.02497 17.1583 6.24997 15.4499 4.54997C13.7416 2.84164 10.9666 2.84164 9.26661 4.54997C8.44161 5.37497 7.98328 6.47497 7.98328 7.64164C7.98328 8.8083 8.44161 9.90831 9.26661 10.7333C9.50828 10.975 9.50828 11.375 9.26661 11.6166C9.02494 11.8583 8.62494 11.8583 8.38328 11.6166C7.32494 10.5583 6.73328 9.14164 6.73328 7.64164C6.73328 6.14164 7.31661 4.72497 8.38328 3.66664C10.5749 1.47497 14.1416 1.47497 16.3416 3.66664C18.5333 5.8583 18.5333 9.4333 16.3416 11.625C16.2166 11.7416 16.0499 11.8 15.8916 11.8Z" fill="#646566"/>
</svg>
