<svg width="52" height="52" viewBox="0 0 52 52" fill="none" xmlns="http://www.w3.org/2000/svg">
<path d="M10.9251 32.86C10.9251 35.8666 8.46909 38.3225 5.46254 38.3225C2.45609 38.3225 0 35.8666 0 32.86C0 29.8535 2.45609 27.3975 5.46254 27.3975H10.9251V32.86Z" fill="#E01E5A"/>
<path d="M13.6775 32.86C13.6775 29.8535 16.1336 27.3975 19.14 27.3975C22.1466 27.3975 24.6026 29.8535 24.6026 32.86V46.5375C24.6026 49.5441 22.1466 52.0001 19.14 52.0001C16.1336 52.0001 13.6775 49.5441 13.6775 46.5375V32.86Z" fill="#E01E5A"/>
<path d="M19.14 10.9251C16.1336 10.9251 13.6775 8.46909 13.6775 5.46254C13.6775 2.45609 16.1336 0 19.14 0C22.1466 0 24.6026 2.45609 24.6026 5.46254V10.9251H19.14Z" fill="#36C5F0"/>
<path d="M19.1401 13.6775C22.1466 13.6775 24.6026 16.1336 24.6026 19.14C24.6026 22.1466 22.1466 24.6026 19.1401 24.6026H5.46254C2.45609 24.6026 0 22.1466 0 19.14C0 16.1336 2.45609 13.6775 5.46254 13.6775H19.1401Z" fill="#36C5F0"/>
<path d="M41.075 19.14C41.075 16.1336 43.531 13.6775 46.5375 13.6775C49.544 13.6775 52 16.1336 52 19.14C52 22.1466 49.544 24.6026 46.5375 24.6026H41.075V19.14Z" fill="#2EB67D"/>
<path d="M38.3225 19.1401C38.3225 22.1466 35.8666 24.6026 32.86 24.6026C29.8535 24.6026 27.3975 22.1466 27.3975 19.1401V5.46254C27.3975 2.45609 29.8535 0 32.86 0C35.8666 0 38.3225 2.45609 38.3225 5.46254V19.1401Z" fill="#2EB67D"/>
<path d="M32.86 41.075C35.8666 41.075 38.3225 43.531 38.3225 46.5375C38.3225 49.544 35.8666 52 32.86 52C29.8535 52 27.3975 49.544 27.3975 46.5375V41.075H32.86Z" fill="#ECB22E"/>
<path d="M32.86 38.3225C29.8535 38.3225 27.3975 35.8666 27.3975 32.86C27.3975 29.8535 29.8535 27.3975 32.86 27.3975H46.5375C49.5441 27.3975 52.0001 29.8535 52.0001 32.86C52.0001 35.8666 49.5441 38.3225 46.5375 38.3225H32.86Z" fill="#ECB22E"/>
</svg>
