<svg width="52" height="52" viewBox="0 0 52 52" fill="none" xmlns="http://www.w3.org/2000/svg">
<path d="M45.1344 17.55C48.0512 17.55 50.4156 15.1856 50.4156 12.2688C50.4156 9.35205 48.0512 6.98755 45.1344 6.98755C42.2176 6.98755 39.8531 9.35205 39.8531 12.2688C39.8531 15.1856 42.2176 17.55 45.1344 17.55Z" fill="#4F59CA"/>
<path d="M43.9969 42.5751H43.1844C38.8375 42.5751 35.3438 39.0407 35.3438 34.7345V22.3032C35.3438 21.0438 36.3594 20.0688 37.5781 20.0688H49.6031C50.8625 20.0688 51.8375 21.0845 51.8375 22.3032V34.6938C51.8781 39.0407 48.3438 42.5751 43.9969 42.5751Z" fill="#4F59CA"/>
<path d="M28.5594 17.4281C32.755 17.4281 36.1563 14.0269 36.1563 9.83125C36.1563 5.63561 32.755 2.23438 28.5594 2.23438C24.3638 2.23438 20.9625 5.63561 20.9625 9.83125C20.9625 14.0269 24.3638 17.4281 28.5594 17.4281Z" fill="#7B82EA"/>
<path d="M28.6 49.6031H27.3C20.475 49.6031 14.9094 44.0375 14.9094 37.2125V21.9781C14.9094 20.9625 15.7625 20.1094 16.7782 20.1094H39.1219C40.1376 20.1094 40.9907 20.9625 40.9907 21.9781V37.2125C40.9907 44.0375 35.4657 49.6031 28.6 49.6031Z" fill="#7B82EA"/>
<path d="M24.1719 39.4875H2.64065C1.21877 39.4875 0.0406494 38.3094 0.0406494 36.8876V15.6813C0.0406494 14.2594 1.21877 13.0813 2.64065 13.0813H24.1719C25.5938 13.0813 26.7719 14.2594 26.7719 15.6813V36.8876C26.7719 38.3094 25.6344 39.4875 24.1719 39.4875Z" fill="#4C53BB"/>
<path d="M11.9437 21.4094H7.71875V19.175H18.8906V21.4094H14.6656V33.7188H11.9844V21.4094H11.9437Z" fill="white"/>
<path opacity="0.2" d="M26.8125 20.1094V36.8469C26.8125 38.2687 25.6344 39.4469 24.2125 39.4469H15.1125L15.7219 41.7625H26.4063C27.8282 41.7625 29.0063 40.5844 29.0063 39.1625V20.1094H26.8125Z" fill="black"/>
</svg>
