<svg width="52" height="52" viewBox="0 0 52 52" fill="none" xmlns="http://www.w3.org/2000/svg">
<path d="M26 0C11.6406 0 0 11.6406 0 26C0 40.3594 11.6406 52 26 52C40.3594 52 52 40.3594 52 26C52 11.6406 40.3594 0 26 0ZM32.6404 33.4031C32.6404 33.6527 32.5412 33.8921 32.3647 34.0686C32.1882 34.2452 31.9488 34.3443 31.6992 34.3444H15.7569C14.5229 34.3444 13.3395 33.8542 12.4669 32.9816C11.5943 32.109 11.1041 30.9256 11.1041 29.6916V18.5969C11.1041 18.3473 11.2033 18.1078 11.3798 17.9313C11.5564 17.7548 11.7958 17.6556 12.0454 17.6556H27.9877C29.2216 17.6556 30.4051 18.1458 31.2776 19.0184C32.1502 19.8909 32.6404 21.0743 32.6404 22.3083V33.4031ZM40.8959 33.7317C40.8959 33.8103 40.8743 33.8873 40.8334 33.9545C40.7925 34.0216 40.734 34.0762 40.6641 34.1123C40.5943 34.1484 40.5159 34.1646 40.4375 34.1591C40.3591 34.1536 40.2837 34.1267 40.2196 34.0812L33.4498 29.2841V22.7158L40.2196 17.9187C40.2837 17.8732 40.3591 17.8463 40.4375 17.8409C40.5159 17.8354 40.5943 17.8516 40.6641 17.8877C40.7339 17.9238 40.7925 17.9784 40.8334 18.0455C40.8742 18.1127 40.8959 18.1898 40.8959 18.2684V33.7317Z" fill="url(#paint0_linear_374_3263)"/>
<defs>
<linearGradient id="paint0_linear_374_3263" x1="0.0966902" y1="51.9033" x2="50.4905" y2="1.50942" gradientUnits="userSpaceOnUse">
<stop stop-color="#0079FF"/>
<stop offset="1" stop-color="#00C2FF"/>
</linearGradient>
</defs>
</svg>
