<svg width="25" height="32" viewBox="0 0 25 32" fill="none" xmlns="http://www.w3.org/2000/svg">
<path d="M13.728 0.0919243C11.816 -0.386076 10.04 1.05992 9.912 2.93192C9.768 5.03392 9.452 6.96393 9.056 8.11193C8.806 8.83193 8.098 10.1379 6.976 11.3899C5.862 12.6359 4.412 13.7459 2.714 14.2099C1.37 14.5759 0 15.7399 0 17.4399V25.4419C0 27.1319 1.364 28.3699 2.896 28.5319C5.036 28.7599 6.024 29.3619 7.032 29.9779L7.128 30.0379C7.672 30.3679 8.284 30.7339 9.068 31.0059C9.862 31.2779 10.79 31.4399 12 31.4399H19C20.874 31.4399 22.198 30.4859 22.868 29.3119C23.1918 28.7579 23.3668 28.1296 23.376 27.4879C23.376 27.1839 23.33 26.8639 23.222 26.5599C23.624 26.0339 23.982 25.4039 24.198 24.7579C24.418 24.0979 24.542 23.2339 24.206 22.4599C24.344 22.1999 24.446 21.9219 24.524 21.6539C24.678 21.1139 24.75 20.5179 24.75 19.9399C24.75 19.3639 24.678 18.7699 24.524 18.2279C24.454 17.9788 24.3617 17.7364 24.248 17.5039C24.5982 17.0057 24.8235 16.4305 24.905 15.827C24.9864 15.2235 24.9216 14.6092 24.716 14.0359C24.304 12.8519 23.352 11.8359 22.316 11.4919C20.622 10.9279 18.71 10.9399 17.284 11.0699C16.988 11.0966 16.6925 11.1299 16.398 11.1699C17.0918 8.1987 17.0492 5.10295 16.274 2.15192C16.1391 1.6791 15.8804 1.25089 15.5246 0.911584C15.1687 0.572273 14.7287 0.334179 14.25 0.221924L13.728 0.0919243ZM19 29.4419H12C10.98 29.4419 10.274 29.3039 9.72 29.1139C9.158 28.9199 8.708 28.6579 8.168 28.3279L8.088 28.2799C6.978 27.6019 5.692 26.8179 3.108 26.5439C2.442 26.4719 2 25.9639 2 25.4439V17.4399C2 16.9319 2.452 16.3539 3.24 16.1399C5.43 15.5399 7.194 14.1479 8.468 12.7239C9.738 11.3039 10.596 9.77392 10.944 8.76792C11.43 7.36792 11.758 5.23192 11.908 3.06792C11.958 2.34392 12.628 1.87992 13.242 2.03192L13.766 2.16392C14.086 2.24392 14.282 2.44992 14.342 2.67392C15.1588 5.78597 15.0581 9.06782 14.052 12.1239C13.9951 12.2939 13.9848 12.4761 14.0224 12.6513C14.06 12.8266 14.1441 12.9885 14.2657 13.1202C14.3874 13.2519 14.5422 13.3484 14.7139 13.3997C14.8857 13.4511 15.0681 13.4553 15.242 13.4119L15.248 13.4099L15.276 13.4039L15.392 13.3759C16.0759 13.2307 16.7678 13.1258 17.464 13.0619C18.79 12.9419 20.378 12.9539 21.684 13.3899C22.034 13.5059 22.584 13.9899 22.824 14.6899C23.038 15.3059 22.998 16.0299 22.292 16.7339L21.586 17.4399L22.292 18.1479C22.378 18.2339 22.502 18.4299 22.6 18.7779C22.696 19.1119 22.75 19.5179 22.75 19.9399C22.75 20.3639 22.696 20.7679 22.6 21.1039C22.5 21.4519 22.378 21.6479 22.292 21.7339L21.586 22.4399L22.292 23.1479C22.386 23.2419 22.51 23.5019 22.302 24.1239C22.0853 24.7271 21.7407 25.2763 21.292 25.7339L20.586 26.4399L21.292 27.1479C21.304 27.1579 21.374 27.2479 21.374 27.4879C21.3651 27.7813 21.2819 28.0676 21.132 28.3199C20.802 28.8959 20.126 29.4419 19 29.4419Z" fill="#5C5959"/>
</svg>
