<svg width="25" height="32" viewBox="0 0 25 32" fill="none" xmlns="http://www.w3.org/2000/svg">
<path d="M11.1967 31.3529C13.1083 31.8327 14.8856 30.3884 15.0154 28.5165C15.1614 26.4146 15.4792 24.4849 15.8763 23.3373C16.127 22.6175 16.8362 21.3122 17.9594 20.0612C19.0746 18.8163 20.5256 17.7077 22.2241 17.2453C23.5684 16.8805 24.9395 15.7178 24.9411 14.0178L24.9487 6.01585C24.9503 4.32585 23.5874 3.08656 22.0556 2.92312C19.9158 2.69309 18.9284 2.09016 17.921 1.47321L17.825 1.41312C17.2813 1.0826 16.6697 0.716022 15.8859 0.443281C15.0922 0.170532 14.1643 0.00765407 12.9543 0.0065104L5.95434 -0.000105856C4.08034 -0.00187712 2.75544 0.950872 2.08433 2.12424C1.75999 2.67794 1.58439 3.30613 1.57461 3.94776C1.57432 4.25176 1.62002 4.5718 1.72773 4.8759C1.32524 5.40152 0.966641 6.03118 0.750029 6.67698C0.529406 7.33677 0.404591 8.20065 0.739857 8.97497C0.601613 9.23484 0.499349 9.51274 0.421095 9.78067C0.266585 10.3205 0.194021 10.9165 0.193475 11.4945C0.192931 12.0705 0.26437 12.6645 0.417857 13.2067C0.487585 13.4559 0.579734 13.6983 0.693173 13.9309C0.342502 14.4289 0.116641 15.0038 0.0346233 15.6072C-0.0473928 16.2107 0.0168344 16.825 0.221895 17.3985C0.632777 18.5829 1.58382 19.5998 2.61949 19.9448C4.31296 20.5104 6.22497 20.5002 7.65109 20.3715C7.94717 20.3451 8.24261 20.3121 8.53718 20.2723C7.84057 23.2429 7.88021 26.3387 8.65266 29.2905C8.78709 29.7634 9.04542 30.1919 9.40093 30.5315C9.75645 30.8712 10.1962 31.1097 10.6748 31.2224L11.1967 31.3529ZM5.95246 1.99789L12.9525 2.00451C13.9725 2.00547 14.6783 2.14414 15.2321 2.33466C15.794 2.5292 16.2437 2.79162 16.7834 3.12213L16.8634 3.17021C17.9727 3.84925 19.258 4.63447 21.8417 4.91091C22.5076 4.98354 22.9492 5.49196 22.9487 6.01196L22.9411 14.016C22.9406 14.524 22.4881 15.1015 21.6999 15.3148C19.5093 15.9127 17.744 17.303 16.4687 18.7258C15.1973 20.1446 14.3379 21.6738 13.9889 22.6795C13.5016 24.079 13.1716 26.2147 13.0195 28.3786C12.9688 29.1025 12.2984 29.5659 11.6845 29.4133L11.1607 29.2808C10.8407 29.2005 10.6449 28.9943 10.5852 28.7703C9.77132 25.6575 9.87514 22.3757 10.8841 19.3206C10.9412 19.1506 10.9516 18.9685 10.9141 18.7932C10.8767 18.6179 10.7928 18.4559 10.6713 18.3241C10.5498 18.1923 10.3951 18.0956 10.2234 18.0441C10.0517 17.9926 9.86928 17.9883 9.6953 18.0314L9.6893 18.0334L9.6613 18.0394L9.54527 18.0673C8.86123 18.2119 8.16926 18.3161 7.47297 18.3793C6.14686 18.4981 4.55887 18.4846 3.25328 18.0473C2.90339 17.931 2.35385 17.4465 2.11451 16.7463C1.9011 16.1301 1.94178 15.4061 2.64845 14.7028L3.35511 13.9974L2.64978 13.2888C2.56386 13.2027 2.44005 13.0066 2.34238 12.6585C2.24669 12.3244 2.19308 11.9183 2.19348 11.4963C2.19388 11.0723 2.24826 10.6684 2.34458 10.3325C2.4449 9.98458 2.56709 9.7887 2.65317 9.70278L3.35984 8.99745L2.65451 8.28878C2.5606 8.19469 2.43684 7.93457 2.64543 7.31277C2.86274 6.70981 3.20779 6.16093 3.65695 5.70373L4.36362 4.99839L3.65829 4.28973C3.6463 4.27971 3.57638 4.18965 3.57661 3.94965C3.58576 3.6563 3.6693 3.37009 3.8194 3.11788C4.14994 2.54219 4.82645 1.99683 5.95246 1.99789Z" fill="#5C5959"/>
</svg>
